<?xml version="1.0" encoding="UTF-8"?>
<svg width="83px" height="79px" viewBox="0 0 83 79" version="1.1" xmlns="http://www.w3.org/2000/svg" xmlns:xlink="http://www.w3.org/1999/xlink">
    <title>编组 4</title>
    <g id="登陆（已交付）" stroke="none" stroke-width="1" fill="none" fill-rule="evenodd">
        <g id="登陆" transform="translate(-679.000000, -231.000000)">
            <g id="编组-6" transform="translate(555.000000, 231.000000)">
                <g id="编组-4" transform="translate(124.000000, 0.000000)">
                    <path d="M55.3333333,30.913916 C51.9158786,33.4914308 47.500985,35.0444444 42.677305,35.0444444 C31.8444641,35.0444444 23.0555556,27.1980665 23.0555556,17.5222222 C23.0555556,7.84637793 31.8362884,0 42.677305,0 C47.500985,0 51.9158786,1.55301366 55.3333333,4.13052849 C54.0906225,3.85407579 52.7906816,3.70771848 51.4498621,3.70771848 C42.7508865,3.70771848 35.6952325,9.89538025 35.6952325,17.5222222 C35.6952325,25.1490642 42.7508865,31.336726 51.4498621,31.336726 C52.7906816,31.336726 54.0906225,31.1903687 55.3333333,30.913916 Z" id="路径" fill="#3366FF"></path>
                    <g id="编组" transform="translate(0.000000, 14.755556)" fill="#000000" fill-opacity="0.8">
                        <g id="编组-2">
                            <path d="M64.8332811,4.62829642 C59.1681923,1.7112018 52.5488928,0.0405808436 45.4911721,0.0405808436 C44.4939789,0.0405808436 43.5053822,0.0752051121 42.525382,0.135797582 C46.3078389,1.0533407 49.798015,2.59412065 52.84977,4.62829642 L64.8332811,4.62829642 Z M60.8175931,13.0371471 L75.5048511,13.0371471 C73.3436889,10.5389394 70.7848729,8.31057292 67.9148496,6.42168414 L55.0516124,6.42168414 C57.3337997,8.34539114 59.2788456,10.5824622 60.8175931,13.0371471 Z M80.7791388,21.6070879 C79.8320038,19.2622141 78.5894322,17.0310841 77.1035599,14.9574457 L61.7756139,14.9574457 C62.8009527,17.0485832 63.5395442,19.2797131 63.9479419,21.6070879 L80.7791388,21.6070879 Z M63.8660624,29.5339772 L82.7157074,29.5339772 C82.5244288,27.459104 82.1157879,25.4455141 81.5158684,23.4932072 L64.1355914,23.4932072 C64.1877583,24.1323032 64.2138418,24.7713992 64.2138418,25.4192498 C64.2051473,26.8200081 64.092119,28.1945021 63.8660624,29.5339772 Z M82.1605455,37.7835447 C82.5649375,35.8428735 82.7800396,33.85022 82.7800396,31.8055842 C82.7800396,31.6149825 82.7800396,31.4243809 82.7714355,31.2251155 L63.5499115,31.2251155 C62.9476256,33.5383264 62.0097804,35.738909 60.7880005,37.7835447 L82.1605455,37.7835447 Z M80.6961499,42.3014658 C81.0552663,41.3888432 81.3801813,40.4590013 81.6537938,39.5205498 L59.5424792,39.5205498 C58.8327966,40.4934399 58.0461605,41.4232818 57.1996717,42.3014658 L80.6961499,42.3014658 Z M78.2427912,46.9786529 C78.8027287,46.0816699 79.3117628,45.1590587 79.7783774,44.2193622 L55.175063,44.2193622 C53.9788329,45.2274003 52.6892799,46.1500114 51.3233717,46.9786529 L78.2427912,46.9786529 Z M75.2965925,50.7972192 C75.8261152,50.1793932 76.3304226,49.5531037 76.8011095,48.9098875 L47.4840407,48.9098875 C45.5424573,49.7223711 43.4916073,50.3655873 41.3567061,50.7972192 L75.2965925,50.7972192 Z M29.1087906,51.3810659 C21.1265191,49.7543069 14.3255195,45.4075367 9.99997951,39.5039755 C11.2507381,43.8594917 13.4829946,47.8826593 16.4882895,51.3810659 L29.1087906,51.3810659 L29.1087906,51.3810659 Z M70.3964157,55.2017042 C71.3501431,54.4334348 72.2624042,53.6317623 73.1249055,52.7799852 L18.0243387,52.7799852 C18.88684,53.6317623 19.7991011,54.4334348 20.7528285,55.2017042 L70.3964157,55.2017042 Z M64.4822241,59.1290359 C65.6334468,58.5326355 66.7429586,57.8942351 67.8024172,57.1970347 L23.5220535,57.1970347 C24.5898543,57.8942351 25.699366,58.5326355 26.8422465,59.1290359 L64.4822241,59.1290359 Z M31.4311911,61.1168553 C35.8578885,62.7136543 40.7085992,63.5931746 45.7882769,63.5931746 C50.8764349,63.5931746 55.7271456,62.7136543 60.1453628,61.1168553 L31.4311911,61.1168553 Z M7.71054477,36.8351352 L7.71054477,36.3811634 C6.75249412,36.4379099 6.3110394,36.0501423 6.37678798,35.1989453 L6.37678798,33.0614949 L8.49952767,29.7796573 C8.9973383,29.0514109 9.55150486,28.6825589 10.1808126,28.6825589 L10.1808126,28.1340096 L6.77127942,28.1340096 L6.77127942,28.6825589 C7.39119455,28.6825589 7.785686,28.7582208 7.95475376,28.9095447 C8.11442887,29.0892419 8.06746561,29.3635165 7.80447131,29.7323686 L6.08561572,32.4656569 L4.3104042,29.6850799 C4.04740991,29.3162278 3.98166133,29.0608687 4.11315848,28.9095447 C4.21647767,28.7582208 4.50764993,28.6825589 5.00546056,28.6825589 L5.00546056,28.1340096 L0.806944444,28.1340096 L0.806944444,28.6825589 C1.30475508,28.7393053 1.7649951,29.0608687 2.18766451,29.6377911 L4.55461319,33.5154666 L4.55461319,35.1989453 C4.62036177,36.0501423 4.18829971,36.4473676 3.26781966,36.3811634 L3.26781966,36.8351352 L7.71054477,36.8351352 L7.71054477,36.8351352 Z M15.0737214,28.3195964 C14.3723181,28.0976277 13.6909548,27.9765539 13.0196116,27.9765539 C10.9154017,28.0370908 9.82321649,28.9451446 9.75307615,30.7007153 C9.75307615,31.9619012 10.5045797,32.8598656 12.0176069,33.3744294 C13.8111954,34.0201566 14.7029796,34.7869576 14.7029796,35.6546535 C14.6328393,36.5929758 14.0316364,37.0974501 12.9093911,37.157987 C11.7170055,37.1882555 10.8953616,36.2701122 10.4344394,34.3934676 L9.80317639,34.4943625 L10.0135974,37.5111191 L10.9053816,37.3194188 C11.6067849,37.5413876 12.2781281,37.6624614 12.9093911,37.6624614 C15.2641023,37.6321929 16.4564879,36.7039601 16.4865481,34.897942 C16.5166082,33.6670245 15.5947638,32.6984338 13.7009749,31.9820802 C12.258088,31.4675164 11.5566847,30.8116997 11.5967649,30.0348092 C11.626825,29.0964869 12.1077873,28.6121915 13.0196116,28.5819231 C14.1017768,28.5819231 14.9134006,29.4597084 15.4444631,31.2051897 L16.0757261,30.963042 L15.8653051,28.0976277 L15.0737214,28.3195964 Z M21.7236518,28.3195964 C21.0222485,28.0976277 20.3408853,27.9765539 19.6695421,27.9765539 C17.5653321,28.0370908 16.473147,28.9451446 16.4030066,30.7007153 C16.4030066,31.9619012 17.1545102,32.8598656 18.6675374,33.3744294 C20.4611259,34.0201566 21.3529101,34.7869576 21.3529101,35.6546535 C21.2827698,36.5929758 20.6815669,37.0974501 19.5593216,37.157987 C18.3669359,37.1882555 17.545292,36.2701122 17.0843699,34.3934676 L16.4531069,34.4943625 L16.6635279,37.5111191 L17.5553121,37.3194188 C18.2567154,37.5413876 18.9280586,37.6624614 19.5593216,37.6624614 C21.9140327,37.6321929 23.1064184,36.7039601 23.1364785,34.897942 C23.1665387,33.6670245 22.2446943,32.6984338 20.3509053,31.9820802 C18.9080185,31.4675164 18.2066152,30.8116997 18.2466954,30.0348092 C18.2767555,29.0964869 18.7577178,28.6121915 19.6695421,28.5819231 C20.7517072,28.5819231 21.5633311,29.4597084 22.0943936,31.2051897 L22.7256566,30.963042 L22.5152356,28.0976277 L21.7236518,28.3195964 Z M29.4814824,36.9747266 L29.4814824,36.5134028 C28.5079161,36.5710683 28.059312,36.1770208 28.1261254,35.3120385 L28.1261254,28.6901189 L28.7274458,28.6901189 C29.662833,28.5940097 30.3786906,29.5070466 30.8845633,31.4196184 L31.4858837,31.2850656 L31.2854436,28.1422968 L23.162846,28.1422968 L22.9624059,31.3331202 L23.5637263,31.467673 C23.9932408,29.5551011 24.7186432,28.6324534 25.7208438,28.6901189 L26.2744404,28.6901189 L26.2744404,35.263984 C26.3412538,36.157799 25.9021944,36.5710683 24.9668072,36.5134028 L24.9668072,36.9747266 L29.4814824,36.9747266 Z M31.3997759,36.680545 L31.3997759,37.15108 L38.8181082,37.15108 L39.0712272,34.2690536 L38.4579005,34.0828002 C38.049016,35.906123 37.2604532,36.7687703 36.1019472,36.680545 L34.4664093,36.680545 L34.4664093,32.8574488 L35.644386,32.8574488 C36.4913609,32.8574488 36.9781282,33.2985753 37.0754816,34.1808283 L37.6401316,34.1808283 L37.6401316,30.9655063 L37.0754816,30.9655063 C37.0365402,31.8771677 36.5595084,32.2986886 35.644386,32.2398717 L34.4664093,32.2398717 L34.4664093,28.701057 L36.1019472,28.701057 C37.2312471,28.6716486 37.9808686,29.426465 38.3508117,30.9655063 L38.9641384,30.828267 L38.6526074,28.1422968 L31.3900405,28.1422968 L31.3900405,28.7108598 C32.2370155,28.652043 32.6361646,29.0931694 32.5680172,30.0342393 L32.5680172,35.4159824 C32.6166939,36.317841 32.2175448,36.7393619 31.3997759,36.680545 Z M46.5256852,28.4395606 C45.6826815,28.1308894 44.9163146,27.9765539 44.2074252,27.9765539 C41.218594,28.0730136 39.6954397,29.6356614 39.6283826,32.6644972 C39.6571214,35.6643952 41.1898553,37.1884591 44.2074252,37.217397 C46.0562854,37.1884591 47.3112113,36.3781972 47.9817824,34.8059035 L47.3303705,34.5261702 C46.6885382,35.8862526 45.6826815,36.5711167 44.3128006,36.5711167 C42.5693158,36.5132409 41.6784142,35.1628045 41.6496754,32.5294536 C41.7167326,29.9925624 42.6076341,28.661418 44.3128006,28.5360203 C45.625204,28.4395606 46.5256852,29.4330959 47.0334033,31.5069804 L47.6848152,31.3237068 L47.4357459,28.2562871 L46.5256852,28.4395606 Z M57.5966841,36.7823294 L57.5966841,36.3311127 C56.7751468,36.3875148 56.3830494,35.9832999 56.420392,35.1090676 L56.420392,29.9482767 C56.3550425,29.0458434 56.7284685,28.6228277 57.5500058,28.6792298 L57.5500058,28.1340096 L53.5263402,28.1340096 L53.5263402,28.6792298 C54.282528,28.6228277 54.6372827,29.0458434 54.6092758,29.9482767 L54.6092758,31.9411504 L50.8376728,31.9411504 L50.8376728,29.9482767 C50.7723232,29.0458434 51.1364136,28.6228277 51.9206083,28.6792298 L51.9206083,28.1340096 L47.8969427,28.1340096 L47.8969427,28.6792298 C48.7091443,28.5852263 49.091906,29.008242 49.0265565,29.9482767 L49.0265565,35.1560693 C49.0545634,35.9738995 48.6624661,36.3593138 47.8502645,36.3311127 L47.8502645,36.7823294 L51.9672865,36.7823294 L51.9672865,36.3311127 C51.1457492,36.3875148 50.7723232,36.0021006 50.8376728,35.1560693 L50.8376728,32.5803741 L54.6092758,32.5803741 L54.6092758,35.1184679 C54.6746253,35.9927002 54.3011993,36.3969152 53.479662,36.3405131 L53.479662,36.7917298 L57.5966841,36.7917298 L57.5966841,36.7823294 Z" id="形状"></path>
                        </g>
                    </g>
                </g>
            </g>
        </g>
    </g>
</svg>