<svg id="ysstech" xmlns="http://www.w3.org/2000/svg" viewBox="0 0 512 512">
  <defs>
    <style>
      .cls-1{fill:#043c80;}.cls-1,.cls-2{fill-rule:evenodd;}.cls-2,.cls-3{fill:#323333;}.cls-3{font-size:54.96px;font-family:SourceHanSansCN-Medium-GBpc-EUC-H,
      Source Han Sans CN;}.cls-4{letter-spacing:-0.02em;}.cls-5{letter-spacing:-0.02em;}.cls-6{letter-spacing:-0.02em;}
    </style>
  </defs>
  <title>ysstech</title>
  <path class="cls-1"
    d="M334,66.43c-20.29-.35-38.47.62-53.76,6.65-38.63,15.24-73.81,62.44-40.46,108.11,13,17.75,34.23,29.31,59.19,35L331,218h-1.21c-14,13.82-62.07,21.3-90.6,15.1-40-5.71-94.22-43.94-88.78-100.26,7.1-42.58,36.41-68.78,74.29-80.33C270.24,41.22,316,53.31,334,66.43Z"/>
  <path class="cls-2"
    d="M270.56,128.64c45.25-.75,77.2,11.49,109.92,21.14v.61c-20.93,0-41.87,1-62.81,1-6.64-3.63-37.15-18.38-49.53-22.13Z"/>
  <path class="cls-2"
    d="M335.79,161.86H404c10.38,3.08,34.23,23,40.46,31.41h-58c-5.63,0-14.22.1-21.14-.5-4-4.83-8.05-10.08-12.08-14.91C347.47,172.62,341.63,167.1,335.79,161.86Z"/>
  <path class="cls-2"
    d="M373.24,204.74h82.14c5.85,2.59,17.82,25.72,21.13,32.62l-91.8-.61C384,224,377.28,214.5,373.24,204.74Z"/>
  <path class="cls-2"
    d="M387.13,248.83l94.5.61c1.75,5.87,6.28,19.11,7.57,30.8H385.31v-1.81C387.69,270.43,387.19,259.18,387.13,248.83Z"/>
  <path class="cls-2"
    d="M382.29,291.72h79.13c6.91,0,24.47-.73,28.71-.15,1.19,10.6-1.49,24.83-2.74,32.16H366.59v-.61C367,322.72,377.88,302.66,382.29,291.72Z"/>
  <path class="cls-2" d="M356.93,335.2H484.37q-2.42,6.94-4.84,13.89H343.64C344.45,348.09,354.2,339,356.93,335.2Z"/>
  <path class="cls-2"
    d="M70.64,341.24c19.67,14.54,36.54,29.86,61.61,39.86l32.61,9.67,18.12,3c-16.5.12-81.16-.24-81.16-.24S75.13,363.51,70.64,341.24Z"/>
  <path class="cls-2" d="M327.94,360.57l145.56.6-7.25,12.08L308,372.65h1.2Z"/>
  <path class="cls-2" d="M278.41,384.73H457.79l-7.25,9.06-210.78-.61C252,393.09,269.71,390,278.41,384.73Z"/>
  <path class="cls-2" d="M114.13,405.26l324.33.61h-1.2L424,417.34H128Z"/>
  <path class="cls-2"
    d="M146.14,428.82l260.31.6h-1.2c-13.23,11.37-38.48,9.06-63.42,9.06H209.56C183.58,438.48,160.12,440.15,146.14,428.82Z"/>
  <path class="cls-2"
    d="M192.65,450l167.3.6-35,9.06c-31.31,6.81-74,5.13-103.28-1.81C211.73,455.46,200.48,454.67,192.65,450Z"/>
  <text class="cls-3" transform="translate(21.57 315.67) scale(1.36 1)">
    <tspan class="cls-4">Y</tspan>
    <tspan class="cls-5" x="29.35" y="0">S</tspan>
    <tspan class="cls-6" x="61.83" y="0">S</tspan>
    <tspan x="94.04" y="0">TECH</tspan>
  </text>
</svg>
