<?xml version="1.0" standalone="no"?><!DOCTYPE svg PUBLIC "-//W3C//DTD SVG 1.1//EN" "http://www.w3.org/Graphics/SVG/1.1/DTD/svg11.dtd"><svg t="1605088003173" class="icon" viewBox="0 0 1024 1024" version="1.1" xmlns="http://www.w3.org/2000/svg" p-id="4031" xmlns:xlink="http://www.w3.org/1999/xlink" width="200" height="200"><defs><style type="text/css"></style></defs><path d="M510.6176 161.9968a348.3136 348.3136 0 0 1 247.5008 102.6048 348.16 348.16 0 0 1 102.6048 247.5008 348.3136 348.3136 0 0 1-102.6048 247.5008 348.16 348.16 0 0 1-247.5008 102.6048 348.3136 348.3136 0 0 1-247.5008-102.6048 348.16 348.16 0 0 1-102.6048-247.5008 348.3136 348.3136 0 0 1 102.6048-247.5008 349.952 349.952 0 0 1 111.2576-75.1104 347.8016 347.8016 0 0 1 136.192-27.4944m0-96a446.0544 446.0544 0 0 0-446.0544 446.1056c0 246.3744 199.68 446.1056 446.1056 446.1056 246.3744 0 446.1056-199.68 446.1056-446.1056 0-246.4256-199.68-446.1056-446.1056-446.1056z m224.256 398.0288h-175.8208V288.1536H463.0016v175.8208H287.1808v95.9488h175.8208v175.8208h96v-175.8208h175.8208V464.0256z" p-id="4032"></path></svg>