<?xml version="1.0" standalone="no"?><!DOCTYPE svg PUBLIC "-//W3C//DTD SVG 1.1//EN" "http://www.w3.org/Graphics/SVG/1.1/DTD/svg11.dtd"><svg t="1608187490024" class="icon" viewBox="0 0 1024 1024" version="1.1" xmlns="http://www.w3.org/2000/svg" p-id="3826" xmlns:xlink="http://www.w3.org/1999/xlink" width="200" height="200"><defs><style type="text/css"></style></defs><path d="M512 686.464l165.290667 72.704-17.962667-179.882667 120.106667-134.954666-176.426667-38.4L512 249.813333 420.992 405.930667l-176.426667 38.442666 120.149334 134.954667-18.005334 179.84L512 686.506667z m0 76.586667l-219.477333 96.554666a17.493333 17.493333 0 0 1-24.448-17.792l23.893333-238.848-159.573333-179.157333a17.536 17.536 0 0 1 9.386666-28.757333l234.24-51.072 120.874667-207.274667a17.493333 17.493333 0 0 1 30.250667 0l120.874666 207.274667 234.154667 51.072a17.493333 17.493333 0 0 1 9.386667 28.757333l-159.573334 179.157333 23.936 238.848a17.536 17.536 0 0 1-24.448 17.792L512 763.050667z" p-id="3827"></path></svg>