<?xml version="1.0" standalone="no"?><!DOCTYPE svg PUBLIC "-//W3C//DTD SVG 1.1//EN" "http://www.w3.org/Graphics/SVG/1.1/DTD/svg11.dtd"><svg t="1606462265862" class="icon" viewBox="0 0 1024 1024" version="1.1" xmlns="http://www.w3.org/2000/svg" p-id="3725" xmlns:xlink="http://www.w3.org/1999/xlink" width="200" height="200"><defs><style type="text/css"></style></defs><path d="M447.018667 577.408l-94.762667-94.72-56.021333 55.893333 118.442666 118.4 0.085334-0.085333 32.426666 32.341333 261.376-261.504-55.978666-55.893333-205.568 205.568zM509.184 138.24a373.376 373.376 0 0 0-373.418667 373.418667 373.376 373.376 0 0 0 373.418667 373.418666 373.376 373.376 0 0 0 373.418667-373.418666 373.376 373.376 0 0 0-373.418667-373.418667z m208.085333 581.546667a295.253333 295.253333 0 0 1-93.610666 63.061333c-36.266667 15.317333-74.752 23.04-114.474667 23.04a292.181333 292.181333 0 0 1-114.517333-23.04 295.253333 295.253333 0 0 1-156.672-156.672 292.181333 292.181333 0 0 1-23.04-114.517333c0-39.722667 7.68-78.250667 23.04-114.474667A295.253333 295.253333 0 0 1 394.666667 240.512a292.181333 292.181333 0 0 1 114.517333-23.082667c39.722667 0 78.250667 7.722667 114.474667 23.04A295.253333 295.253333 0 0 1 780.373333 397.226667c15.36 36.266667 23.082667 74.752 23.082667 114.474666 0 39.765333-7.765333 78.250667-23.04 114.517334a295.253333 295.253333 0 0 1-63.146667 93.568z" p-id="3726"></path></svg>
