<?xml version="1.0" standalone="no"?><!DOCTYPE svg PUBLIC "-//W3C//DTD SVG 1.1//EN" "http://www.w3.org/Graphics/SVG/1.1/DTD/svg11.dtd"><svg t="1604907414631" class="icon" viewBox="0 0 1024 1024" version="1.1" xmlns="http://www.w3.org/2000/svg" p-id="4655" xmlns:xlink="http://www.w3.org/1999/xlink" width="200" height="200"><defs><style type="text/css"></style></defs><path d="M472.064 418.816l-71.68-69.632 249.344-250.368 273.92 273.92-249.344 250.368-68.608-68.608 188.416-186.88-134.144-134.656m-34.816 433.152l-248.832 248.32L102.4 645.632l252.416-251.904 69.632 70.144L237.056 650.24l134.656 134.656 186.88-186.368 66.56 67.584zM208.896 174.08l-30.72 30.72 123.392 123.392 30.72-30.72L208.896 174.08z m179.2-22.016h-43.52v116.224h43.52V152.064zM151.04 338.432v43.52h116.224v-43.52H151.04z m661.504 502.272l30.72-30.72-123.392-123.392-30.72 30.72 123.392 123.392z m-179.2 22.016h43.52v-116.224h-43.52v116.224z m236.544-186.368v-43.52h-116.224v43.52h116.224z" p-id="4656"></path></svg>