<?xml version="1.0" standalone="no"?><!DOCTYPE svg PUBLIC "-//W3C//DTD SVG 1.1//EN" "http://www.w3.org/Graphics/SVG/1.1/DTD/svg11.dtd"><svg t="1606380869617" class="icon" viewBox="0 0 1024 1024" version="1.1" xmlns="http://www.w3.org/2000/svg" p-id="3725" xmlns:xlink="http://www.w3.org/1999/xlink" width="200" height="200"><defs><style type="text/css"></style></defs><path d="M500.437333 771.072H249.685333V401.749333h531.498667v51.072h80V321.749333l-92.501333-160.170666h-0.085334v-0.085334h-121.685333v0.085334H262.229333v0.085333h-0.042666L169.770667 321.749333h-0.085334v529.408h330.752v-80.085333z m-192-529.408h350.464v-0.085333h63.573334l46.378666 80.170666H262.186667l46.250666-80.085333z m348.458667 301.738667a82.773333 82.773333 0 0 1 58.922667 24.448c15.786667 15.744 24.448 36.650667 24.448 58.88a82.773333 82.773333 0 0 1-24.448 58.922666c-15.744 15.786667-36.650667 24.448-58.88 24.448a82.773333 82.773333 0 0 1-58.922667-24.448 82.773333 82.773333 0 0 1-24.448-58.88c0-22.272 8.661333-43.178667 24.448-58.922666 15.744-15.786667 36.650667-24.448 58.88-24.448m0-79.146667a162.474667 162.474667 0 1 0 0 324.992 162.474667 162.474667 0 0 0 0-324.992z m117.12 226.730667l-55.893333 55.893333 90.453333 90.624 56.021333-56.021333-90.581333-90.453334z" p-id="3726"></path></svg>
