<?xml version="1.0" standalone="no"?><!DOCTYPE svg PUBLIC "-//W3C//DTD SVG 1.1//EN" "http://www.w3.org/Graphics/SVG/1.1/DTD/svg11.dtd"><svg t="1606462573179" class="icon" viewBox="0 0 1024 1024" version="1.1" xmlns="http://www.w3.org/2000/svg" p-id="4002" xmlns:xlink="http://www.w3.org/1999/xlink" width="200" height="200"><defs><style type="text/css"></style></defs><path d="M434.432 356.864v279.253333l232.704-139.648z" p-id="4003"></path><path d="M510.848 220.330667a290.261333 290.261333 0 0 1 206.250667 85.504 290.133333 290.133333 0 0 1 85.504 206.250666 290.261333 290.261333 0 0 1-85.504 206.250667 290.133333 290.133333 0 0 1-206.250667 85.504 290.261333 290.261333 0 0 1-206.250667-85.504 290.133333 290.133333 0 0 1-85.504-206.250667 290.261333 290.261333 0 0 1 85.504-206.250666 291.626667 291.626667 0 0 1 92.757334-62.592 289.834667 289.834667 0 0 1 113.493333-22.912m0-80a371.712 371.712 0 0 0-371.754667 371.754666c0 205.312 166.4 371.754667 371.754667 371.754667 205.312 0 371.754667-166.4 371.754667-371.754667 0-205.354667-166.4-371.754667-371.754667-371.754666z" p-id="4004"></path></svg>
