<?xml version="1.0" standalone="no"?><!DOCTYPE svg PUBLIC "-//W3C//DTD SVG 1.1//EN" "http://www.w3.org/Graphics/SVG/1.1/DTD/svg11.dtd"><svg t="1609836042674" class="icon" viewBox="0 0 1024 1024" version="1.1" xmlns="http://www.w3.org/2000/svg" p-id="3820" xmlns:xlink="http://www.w3.org/1999/xlink" width="200" height="200"><defs><style type="text/css"></style></defs><path d="M362.1 664.3h110.7v96H362.1z m0-168.5h198.3v96H362.1z m346.5 29.7l-88.9 36.2 21.1 51.9c-11.8 9-22.6 19.5-32 31.3l-51.4-21.7-37.3 88.5 51.2 21.6c-2 15.1-2.1 30.2-0.3 45l-51.5 20.9 36.2 88.9 51.5-21c9.1 11.8 19.7 22.5 31.6 31.9l-21.7 51.4 88.5 37.3 21.8-51.7c7.6 1 15.1 1.4 22.6 1.4 7.4 0 14.7-0.5 21.9-1.3l21.2 52.1L882 952l-21.4-52.5c11.5-8.9 22.1-19.3 31.3-31.1l52.4 22.1 37.3-88.5-52.3-22-0.3 0.7c2-15.2 2.1-30.5 0.2-45.4l0.3 0.8 52.7-21.4-36.2-88.9-52.7 21.4 0.2 0.5c-9-11.8-19.4-22.5-31.2-31.9l0.1 0.1 22.1-52.4-88.3-37.5-22 52.2c-8-1.1-16-1.6-23.9-1.6-6.8 0-13.6 0.4-20.4 1.2l-21.3-52.3z m41.6 348c-15.3 0-30.7-3.1-45.2-9.2-28.7-12.1-50.9-34.6-62.6-63.4-11.7-28.8-11.5-60.4 0.6-89.1 12.1-28.6 34.6-50.9 63.4-62.6 14.2-5.8 29-8.6 43.9-8.6 15.3 0 30.7 3.1 45.2 9.2 28.6 12.1 50.9 34.6 62.6 63.4 11.7 28.8 11.5 60.4-0.6 89.1-12.1 28.6-34.6 50.9-63.4 62.6-14.2 5.7-29.1 8.6-43.9 8.6z" p-id="3821"></path><path d="M448.1 839.2H266.8V188H496v221.5h261.3v59.6h95.9V313.5h-0.3L630.4 91l-1.4 1.4V92H170.8v843.2h277.3v-96zM592 188.3l125.1 125.2H592V188.3z" p-id="3822"></path></svg>