<?xml version="1.0" standalone="no"?><!DOCTYPE svg PUBLIC "-//W3C//DTD SVG 1.1//EN" "http://www.w3.org/Graphics/SVG/1.1/DTD/svg11.dtd"><svg t="1608186359079" class="icon" viewBox="0 0 1365 1024" version="1.1" xmlns="http://www.w3.org/2000/svg" p-id="3826" xmlns:xlink="http://www.w3.org/1999/xlink" width="266.6015625" height="200"><defs><style type="text/css"></style></defs><path d="M1139.030016 545.723733a513.501867 513.501867 0 0 0-29.354667-70.656l-139.605333 62.941867c12.288 22.391467 22.186667 46.08 29.354667 70.656l139.605333-62.941867zM423.731883 494.318933a340.650667 340.650667 0 0 1 52.292266-54.408533l-107.52-111.957333c-18.773333 16.725333-36.2496 34.952533-52.292266 54.408533l107.52 111.957333zM521.216683 408.234667c21.504-12.4928 44.373333-22.528 68.1984-29.764267l-58.845867-146.090667a470.2208 470.2208 0 0 0-68.130133 29.764267l58.7776 146.090667zM364.339883 613.853867c6.826667-24.644267 16.315733-48.469333 28.2624-71.133867l-140.4928-60.6208a514.048 514.048 0 0 0-28.330667 71.133867l140.561067 60.6208z m536.712533-352.6656a471.2448 471.2448 0 0 0-68.266667-29.559467l-58.231466 146.363733c23.825067 7.168 46.6944 17.066667 68.266666 29.4912l58.231467-146.295466zM1048.986283 382.293333a497.117867 497.117867 0 0 0-52.292267-54.4768l-107.451733 111.957334c19.319467 16.1792 36.864 34.474667 52.224 54.4768l107.52-111.957334zM719.531349 208.213333a468.104533 468.104533 0 0 0-73.864533 0v158.378667a321.058133 321.058133 0 0 1 73.864533 0v-158.378667zM682.667349 992.324267a133.3248 133.3248 0 0 1-64.443733-249.992534L682.667349 440.32l64.443734 302.011733A133.256533 133.256533 0 0 1 682.667349 992.324267zM91.614549 1024A678.5024 678.5024 0 0 1 0.000683 682.666667C0.000683 306.244267 306.244949 0 682.667349 0s682.666667 306.244267 682.666667 682.666667c0 124.245333-33.3824 240.776533-91.613867 341.265066l-115.0976-66.491733A546.4064 546.4064 0 0 0 1232.350549 682.666667c0-303.104-246.5792-549.751467-549.6832-549.751467-303.104 0-549.751467 246.647467-549.751466 549.751467 0 100.010667 26.897067 193.877333 73.728 274.773333L91.682816 1024z" p-id="3827"></path></svg>