<?xml version="1.0" standalone="no"?><!DOCTYPE svg PUBLIC "-//W3C//DTD SVG 1.1//EN" "http://www.w3.org/Graphics/SVG/1.1/DTD/svg11.dtd"><svg t="1608194397130" class="icon" viewBox="0 0 1024 1024" version="1.1" xmlns="http://www.w3.org/2000/svg" p-id="4140" xmlns:xlink="http://www.w3.org/1999/xlink" width="200" height="200"><defs><style type="text/css"></style></defs><path d="M512 85.717333c-235.605333 0-426.581333 190.72-426.581333 426.112 0 235.306667 190.976 426.069333 426.581333 426.069334 235.605333 0 426.581333-190.72 426.581333-426.069334 0-235.349333-190.976-426.112-426.581333-426.112z m-47.488 141.226667c11.264-10.922667 24.704-16.469333 40.234667-16.469333s28.885333 5.546667 39.850666 16.469333c10.965333 11.093333 16.512 24.32 16.512 39.808 0 15.530667-5.546667 28.970667-16.512 40.192-11.050667 11.264-24.32 16.853333-39.850666 16.853333a55.04 55.04 0 0 1-40.234667-16.853333 54.528 54.528 0 0 1-16.853333-40.106667c0-15.616 5.589333-28.842667 16.853333-39.893333z m155.434667 590.208H404.906667v-28.16c47.317333 0 70.826667-12.032 70.826666-36.138667V471.04c0-24.576-23.594667-36.949333-70.826666-36.949333v-25.728h143.402666v344.576c-0.554667 12.288 5.376 21.333333 17.749334 27.264 12.288 5.888 30.293333 8.832 53.973333 8.832v28.117333h-0.085333z" fill="#3366FF" p-id="4141"></path></svg>
