<?xml version="1.0" standalone="no"?><!DOCTYPE svg PUBLIC "-//W3C//DTD SVG 1.1//EN" "http://www.w3.org/Graphics/SVG/1.1/DTD/svg11.dtd"><svg t="1604907292380" class="icon" viewBox="0 0 1024 1024" version="1.1" xmlns="http://www.w3.org/2000/svg" p-id="3712" xmlns:xlink="http://www.w3.org/1999/xlink" width="200" height="200"><defs><style type="text/css"></style></defs><path d="M573 540l67.2-67.2 24 24 129.7-129.7-134.4-134.5-129.7 129.7 4.8 9.6-67.2 67.2-76.8-81.6L649.9 98.2l273.7 273.7-259.3 259.3L573 540z m-129.6-76.9l-67.2 67.2-9.6-9.6-129.7 129.7 134.5 134.5L501 655.2l-24-24 67.2-67.2 91.2 91.2-259.3 259.3-273.7-268.9 259.3-259.3 81.7 76.8z m158.4-124.8l67.2 67.2-259.2 259.3-67.2-67.2 259.2-259.3z" p-id="3713"></path></svg>