<svg version="1.1" id="ysstech" xmlns="http://www.w3.org/2000/svg" x="0" y="0" viewBox="0 0 1024 1025" xml:space="preserve"><style></style><path d="M695.9 414.3c-41.8 31.7-95.8 50.8-154.8 50.8-132.5 0-240-96.5-240-215.5s107.4-215.5 240-215.5c59 0 113 19.1 154.8 50.8-15.2-3.4-31.1-5.2-47.5-5.2-106.4 0-192.7 76.1-192.7 169.9S542 419.5 648.4 419.5c16.4 0 32.3-1.8 47.5-5.2zm90.3-145.2c-65.9-33.7-142.9-53-225-53-11.6 0-23.1.4-34.5 1.1 44 10.6 84.6 28.4 120.1 51.9h139.4zm-40.6 100h169.9c-25-28.7-54.6-54.3-87.8-76H678.9c26.4 22.1 48.9 47.8 66.7 76zm233.7 103c-10.9-26.8-25.2-52.3-42.3-76H760.6c11.8 23.9 20.3 49.4 25 76h193.7zm-193.3 96h216.8c-2.2-23.7-6.9-46.7-13.8-69H789.1c.6 7.3.9 14.6.9 22-.1 16-1.4 31.7-4 47zm211 100c4.7-22.4 7.2-45.4 7.2-69 0-2.2 0-4.4-.1-6.7H780.7c-7 26.7-17.9 52.1-32.1 75.7H997zm-17.2 56.7c4.2-10.6 8-21.4 11.2-32.3H732.4c-8.3 11.3-17.5 22.1-27.4 32.3h274.8zm-28.9 56.7c6.6-10.5 12.6-21.3 18.1-32.3H679c-14.1 11.8-29.3 22.6-45.4 32.3h317.3zm-34.6 46.6c6.3-7.3 12.3-14.7 17.9-22.3H585.4c-23.1 9.6-47.5 17.2-72.9 22.3h403.8zm-564.8 0c-91.9-18.6-170.2-68.3-220-135.8 14.4 49.8 40.1 95.8 74.7 135.8h145.3zm509 53.4c11.5-9.2 22.5-18.8 32.9-29H229c10.4 10.2 21.4 19.8 32.9 29h598.6zm-73.7 47.3c13.8-7.1 27.1-14.7 39.8-23H295.8c12.8 8.3 26.1 15.9 39.8 23h451.2zm-394.9 24.3c52.2 18.7 109.4 29 169.3 29 60 0 117.2-10.3 169.3-29H391.9zm-298.6-306v-4.8c-10.2.6-14.9-3.5-14.2-12.5v-22.6l22.6-34.7c5.3-7.7 11.2-11.6 17.9-11.6v-5.8H83.3v5.8c6.6 0 10.8.8 12.6 2.4 1.7 1.9 1.2 4.8-1.6 8.7L76 600.9l-18.9-29.4c-2.8-3.9-3.5-6.6-2.1-8.2 1.1-1.6 4.2-2.4 9.5-2.4v-5.8H19.8v5.8c5.3.6 10.2 4 14.7 10.1l25.2 41v17.8c.7 9-3.9 13.2-13.7 12.5v4.8h47.3zm88.3-90.5c-7-2.2-13.8-3.4-20.5-3.4-21 .6-31.9 9.6-32.6 27 0 12.5 7.5 21.4 22.6 26.5 17.9 6.4 26.8 14 26.8 22.6-.7 9.3-6.7 14.3-17.9 14.9-11.9.3-20.1-8.8-24.7-27.4l-6.3 1 2.1 29.9 8.9-1.9c7 2.2 13.7 3.4 20 3.4 23.5-.3 35.4-9.5 35.7-27.4.3-12.2-8.9-21.8-27.8-28.9-14.4-5.1-21.4-11.6-21-19.3.3-9.3 5.1-14.1 14.2-14.4 10.8 0 18.9 8.7 24.2 26l6.3-2.4-2.1-28.4-7.9 2.2zm80.8 0c-7-2.2-13.8-3.4-20.5-3.4-21 .6-31.9 9.6-32.6 27 0 12.5 7.5 21.4 22.6 26.5 17.9 6.4 26.8 14 26.8 22.6-.7 9.3-6.7 14.3-17.9 14.9-11.9.3-20.1-8.8-24.7-27.4l-6.3 1 2.1 29.9 8.9-1.9c7 2.2 13.7 3.4 20 3.4 23.5-.3 35.4-9.5 35.7-27.4.3-12.2-8.9-21.8-27.8-28.9-14.4-5.1-21.4-11.6-21-19.3.3-9.3 5.1-14.1 14.2-14.4 10.8 0 18.9 8.7 24.2 26l6.3-2.4-2.1-28.4-7.9 2.2zm94.9 90.5v-4.8c-10.2.6-14.9-3.5-14.2-12.5v-68.9h6.3c9.8-1 17.3 8.5 22.6 28.4l6.3-1.4-2.1-32.7h-85.1l-2.1 33.2 6.3 1.4c4.5-19.9 12.1-29.5 22.6-28.9h5.8v68.4c.7 9.3-3.9 13.6-13.7 13v4.8h47.3zm34.2-4.8v4.8h76.2l2.6-29.4-6.3-1.9c-4.2 18.6-12.3 27.4-24.2 26.5H423v-39h12.1c8.7 0 13.7 4.5 14.7 13.5h5.8V584h-5.8c-.4 9.3-5.3 13.6-14.7 13H423v-36.1h16.8c11.6-.3 19.3 7.4 23.1 23.1l6.3-1.4-3.2-27.4h-74.6v5.8c8.7-.6 12.8 3.9 12.1 13.5v54.9c.5 9.2-3.6 13.5-12 12.9zm172-84.3c-8.8-3.2-16.8-4.8-24.2-4.8-31.2 1-47.1 17.2-47.8 48.6.3 31.1 16.3 46.9 47.8 47.2 19.3-.3 32.4-8.7 39.4-25l-6.8-2.9c-6.7 14.1-17.2 21.2-31.5 21.2-18.2-.6-27.5-14.6-27.8-41.9.7-26.3 10-40.1 27.8-41.4 13.7-1 23.1 9.3 28.4 30.8l6.8-1.9-2.6-31.8-9.5 1.9zm132.3 89.1v-4.8c-8.8.6-13-3.7-12.6-13v-54.9c-.7-9.6 3.3-14.1 12.1-13.5v-5.8h-43.1v5.8c8.1-.6 11.9 3.9 11.6 13.5v21.2h-40.4v-21.2c-.7-9.6 3.2-14.1 11.6-13.5v-5.8h-43.1v5.8c8.7-1 12.8 3.5 12.1 13.5v55.4c.3 8.7-3.9 12.8-12.6 12.5v4.8h44.1v-4.8c-8.8.6-12.8-3.5-12.1-12.5v-27.4h40.4v27c.7 9.3-3.3 13.6-12.1 13v4.8h44.1z"/></svg>