<svg width="83" height="79" xmlns="http://www.w3.org/2000/svg"><g fill="none" fill-rule="evenodd"><path d="M55.333 30.914c-3.417 2.577-7.832 4.13-12.656 4.13-10.833 0-19.621-7.846-19.621-17.522C23.056 7.846 31.836 0 42.677 0c4.824 0 9.239 1.553 12.656 4.13a17.87 17.87 0 00-3.883-.422c-8.7 0-15.755 6.187-15.755 13.814s7.056 13.815 15.755 13.815c1.34 0 2.64-.147 3.883-.423z" fill="#36F"/><path d="M64.833 19.384c-5.665-2.917-12.284-4.588-19.342-4.588-.997 0-1.986.035-2.966.095 3.783.918 7.273 2.459 10.325 4.493h11.983zm-4.015 8.409h14.687c-2.161-2.499-4.72-4.727-7.59-6.616H55.052a28.4 28.4 0 015.766 6.616zm19.961 8.57a32.04 32.04 0 00-3.675-6.65H61.776a24.846 24.846 0 012.172 6.65h16.831zM63.866 44.29h18.85a29.85 29.85 0 00-1.2-6.041h-17.38c.052.639.078 1.278.078 1.926a25.672 25.672 0 01-.348 4.115zm18.295 8.25c.404-1.942.619-3.934.619-5.979 0-.19 0-.381-.009-.58H63.55a25.128 25.128 0 01-2.762 6.558h21.373zm-1.465 4.517c.36-.913.684-1.842.958-2.78H59.542a26.638 26.638 0 01-2.342 2.78h23.496zm-2.453 4.677c.56-.897 1.069-1.82 1.535-2.76H55.175a30.632 30.632 0 01-3.852 2.76h26.92zm-2.946 3.819a31.416 31.416 0 001.504-1.888H47.484a32.632 32.632 0 01-6.127 1.888h33.94zm-46.188.584C21.127 64.51 14.326 60.163 10 54.26c1.25 4.355 3.483 8.378 6.488 11.877h12.62zm41.287 3.82a36.088 36.088 0 002.729-2.421h-55.1a36.088 36.088 0 002.728 2.421h49.643zm-5.914 3.928a36.93 36.93 0 003.32-1.932h-44.28a39.41 39.41 0 003.32 1.932h37.64zm-33.05 1.987c4.426 1.597 9.277 2.477 14.356 2.477 5.088 0 9.94-.88 14.357-2.477H31.431zM7.71 51.591v-.454c-.959.056-1.4-.331-1.334-1.182v-2.138L8.5 44.535c.497-.728 1.052-1.097 1.68-1.097v-.548H6.772v.548c.62 0 1.015.076 1.184.227.16.18.112.454-.15.823l-1.72 2.733-1.775-2.78c-.263-.37-.328-.625-.197-.776.103-.151.395-.227.892-.227v-.548H.807v.548c.498.057.958.378 1.38.955l2.368 3.878v1.684c.065.85-.367 1.248-1.287 1.182v.454H7.71zm7.363-8.516c-.702-.222-1.383-.343-2.054-.343-2.105.06-3.197.969-3.267 2.724 0 1.261.752 2.16 2.265 2.674 1.793.646 2.685 1.413 2.685 2.28-.07.939-.671 1.443-1.794 1.504-1.192.03-2.014-.888-2.475-2.765l-.63.1.21 3.018.891-.192c.702.222 1.373.343 2.004.343 2.355-.03 3.547-.958 3.578-2.765.03-1.23-.892-2.199-2.786-2.915-1.443-.515-2.144-1.17-2.104-1.948.03-.938.51-1.422 1.423-1.453 1.082 0 1.893.878 2.424 2.624l.632-.242-.21-2.866-.792.222zm6.65 0c-.702-.222-1.383-.343-2.054-.343-2.105.06-3.197.969-3.267 2.724 0 1.261.752 2.16 2.265 2.674 1.793.646 2.685 1.413 2.685 2.28-.07.939-.671 1.443-1.794 1.504-1.192.03-2.014-.888-2.475-2.765l-.63.1.21 3.018.891-.192c.702.222 1.373.343 2.004.343 2.355-.03 3.547-.958 3.577-2.765.03-1.23-.891-2.199-2.785-2.915-1.443-.515-2.144-1.17-2.104-1.948.03-.938.51-1.422 1.423-1.453 1.082 0 1.893.878 2.424 2.624l.632-.242-.21-2.866-.792.222zm7.757 8.655v-.461c-.973.058-1.422-.336-1.355-1.201v-6.622h.601c.936-.096 1.652.817 2.158 2.73l.6-.135-.2-3.143h-8.122l-.2 3.19.6.135c.43-1.912 1.156-2.835 2.158-2.777h.553v6.574c.067.893-.372 1.307-1.307 1.249v.461h4.514zm1.919-.294v.47h7.418l.253-2.881-.613-.187c-.409 1.824-1.198 2.686-2.356 2.598h-1.636v-3.823h1.178c.847 0 1.334.441 1.431 1.323h.565v-3.215h-.565c-.038.912-.515 1.333-1.43 1.274h-1.179v-3.538h1.636c1.13-.03 1.879.725 2.249 2.264l.613-.137-.311-2.686H31.39v.568c.847-.058 1.246.383 1.178 1.324v5.382c.049.901-.35 1.323-1.168 1.264zm15.126-8.24c-.843-.31-1.61-.464-2.319-.464-2.988.097-4.512 1.66-4.579 4.688.03 3 1.562 4.524 4.58 4.553 1.848-.029 3.103-.84 3.774-2.412l-.652-.28c-.641 1.36-1.647 2.046-3.017 2.046-1.744-.058-2.635-1.409-2.663-4.042.067-2.537.958-3.868 2.663-3.993 1.312-.097 2.213.897 2.72 2.97l.652-.183-.25-3.067-.91.183zm11.07 8.342v-.451c-.82.056-1.213-.348-1.176-1.222v-5.161c-.065-.903.308-1.326 1.13-1.27v-.544h-4.024v.545c.757-.057 1.111.366 1.083 1.269v1.993h-3.771v-1.993c-.066-.903.298-1.326 1.083-1.27v-.544h-4.024v.545c.812-.094 1.195.329 1.13 1.269v5.208c.028.817-.365 1.203-1.177 1.175v.45h4.117v-.45c-.821.056-1.195-.33-1.13-1.175v-2.576h3.772v2.538c.066.874-.308 1.278-1.13 1.222v.451h4.118v-.01z" fill="#000" fill-opacity=".8"/></g></svg>