<?xml version="1.0" encoding="UTF-8"?>
<svg width="110px" height="109px" viewBox="0 0 110 109" version="1.1" xmlns="http://www.w3.org/2000/svg" xmlns:xlink="http://www.w3.org/1999/xlink">
    <title>暂无数据</title>
    <g id="各种情况占位符（已完成）" stroke="none" stroke-width="1" fill="none" fill-rule="evenodd">
        <g id="暂无数据">
            <rect id="矩形" fill="#FFFFFF" opacity="0.300000012" x="18" y="59.5" width="74" height="35"></rect>
            <polygon id="矩形" fill="#FFFFFF" opacity="0.200000003" points="27.5 48 83 48 92 59.5 18 59.5"></polygon>
            <circle id="椭圆形" stroke="#FFFFFF" opacity="0.200000003" cx="92" cy="22" r="3.5"></circle>
            <polygon id="路径-20" fill="#FFFFFF" opacity="0.229999989" points="18 59.5 2 74 10 61.5 27.5 48"></polygon>
            <circle id="椭圆形" stroke="#FFFFFF" opacity="0.200000003" cx="49" cy="6" r="5.5"></circle>
            <circle id="椭圆形" stroke="#FFFFFF" opacity="0.200000003" cx="47" cy="28" r="1.5"></circle>
            <path d="M8.5,103.5 L20.5,103.5 M24.5,103.5 L31.5,103.5 M60,108 L64,108 M67,108 L79,108 M90.5,100 L98.5,100 M98.5,84.5 L108,84.5 M0,86 L8.5,86" id="形状结合" stroke="#FFFFFF" opacity="0.200000003"></path>
            <path d="M18.4843795,19.5 C22.0500421,19.5 24.9437663,16.5914794 24.9437663,13 C24.9437663,16.5880815 27.834114,19.5 31.4031531,19.5 C27.8374906,19.5 24.9437663,22.4085206 24.9437663,26 C24.9437663,22.4085206 22.0500421,19.5 18.4843795,19.5 Z" id="路径" stroke="#FFFFFF" opacity="0.300000012"></path>
            <path d="M69.9687591,8 C72.1630129,8 73.9437663,6.21014114 73.9437663,4 C73.9437663,6.20805018 75.7224418,8 77.9187736,8 C75.7245197,8 73.9437663,9.78985886 73.9437663,12 C73.9437663,9.78985886 72.1630129,8 69.9687591,8 Z" id="路径备份" fill="#FFFFFF" opacity="0.400000006"></path>
            <path d="M65,30 C69.9370712,30 73.9437663,25.9728176 73.9437663,21 C73.9437663,25.9681129 77.9457862,30 82.8875326,30 C77.9504614,30 73.9437663,34.0271824 73.9437663,39 C73.9437663,34.0271824 69.9370712,30 65,30 Z" id="路径备份-2" stroke="#FFFFFF" opacity="0.300000012"></path>
            <polygon id="路径-2" fill="#000000" opacity="0.300000012" points="27.5 48 27.5 59.5 18 59.5"></polygon>
            <polygon id="路径-2备份" fill="#000000" opacity="0.300000012" transform="translate(87.500000, 53.750000) scale(-1, 1) translate(-87.500000, -53.750000) " points="92 48 92 59.5 83 59.5"></polygon>
            <polygon id="路径-20备份" fill="#FFFFFF" opacity="0.229999989" transform="translate(96.250000, 61.000000) scale(1, -1) translate(-96.250000, -61.000000) " points="100 59.5 83 74 92 62.5 109.5 48"></polygon>
        </g>
    </g>
</svg>