<?xml version="1.0" standalone="no"?><!DOCTYPE svg PUBLIC "-//W3C//DTD SVG 1.1//EN" "http://www.w3.org/Graphics/SVG/1.1/DTD/svg11.dtd"><svg t="1609836076708" class="icon" viewBox="0 0 1097 1024" version="1.1" xmlns="http://www.w3.org/2000/svg" p-id="4322" xmlns:xlink="http://www.w3.org/1999/xlink" width="214.2578125" height="200"><defs><style type="text/css"></style></defs><path d="M218.697143 837.705143H512v109.860571H218.697143v-109.860571z m-36.571429-217.161143V181.833143h658.285715v195.510857h109.714285V72.045714H72.118857v109.714286l0.146286 438.857143-0.146286 109.714286h366.811429v-109.714286H182.125714z" p-id="4323"></path><path d="M965.12 721.188571c2.194286-16.822857 2.340571-33.645714 0.219429-50.176l0.365714 0.877715 58.294857-23.698286-40.082286-98.377143-58.294857 23.698286 0.219429 0.585143a199.094857 199.094857 0 0 0-34.377143-35.181715l24.429714-58.002285-97.718857-41.472-24.356571 57.782857a194.194286 194.194286 0 0 0-49.005715-0.512L721.261714 438.857143l-98.377143 40.082286 23.405715 57.417142a201.581714 201.581714 0 0 0-35.474286 34.596572l-56.905143-23.990857-41.252571 97.938285 56.685714 23.917715a197.485714 197.485714 0 0 0-0.365714 49.737143L512 741.814857l40.082286 98.377143 56.978285-23.259429c10.020571 13.019429 21.796571 24.868571 34.962286 35.328l-23.990857 56.832 97.865143 41.252572 24.137143-57.197714c8.411429 1.097143 16.749714 1.536 25.014857 1.536 8.192 0 16.310857-0.512 24.210286-1.462858l23.478857 57.709715 98.377143-40.082286-23.698286-58.075429a196.022857 196.022857 0 0 0 34.669714-34.377142l58.002286 24.429714 41.252571-97.938286-57.856-24.356571-0.365714 0.731428z m-79.140571 23.990858a128.146286 128.146286 0 0 1-118.710858 78.774857 129.170286 129.170286 0 0 1-119.222857-80.384 128 128 0 0 1 0.585143-98.596572 128.146286 128.146286 0 0 1 118.784-78.774857 129.170286 129.170286 0 0 1 119.222857 80.384 128 128 0 0 1-0.658285 98.596572z" p-id="4324"></path></svg>