<?xml version="1.0" standalone="no"?><!DOCTYPE svg PUBLIC "-//W3C//DTD SVG 1.1//EN" "http://www.w3.org/Graphics/SVG/1.1/DTD/svg11.dtd"><svg t="1609836229456" class="icon" viewBox="0 0 1024 1024" version="1.1" xmlns="http://www.w3.org/2000/svg" p-id="3979" xmlns:xlink="http://www.w3.org/1999/xlink" width="200" height="200"><defs><style type="text/css"></style></defs><path d="M219.434667 406.912h585.130666v51.925333h80V178.602667H139.434667v612.650666h294.314666V711.253333H219.434667V406.912z m0-148.309333h585.130666v68.309333H219.434667V258.602667z" p-id="3980"></path><path d="M298.666667 486.912h172.586666v80H298.666667v-80z m542.506666 224.341333c1.664-12.672 1.706667-25.429333 0.170667-37.845333l0.256 0.682667 43.904-17.834667-30.165333-74.069333-43.946667 17.792 0.170667 0.426666a149.930667 149.930667 0 0 0-25.898667-26.453333l18.432-43.690667-73.6-31.274666-18.346667 43.52a146.261333 146.261333 0 0 0-36.906666-0.341334l-17.749334-43.562666-74.069333 30.165333 17.578667 43.221333c-9.813333 7.509333-18.816 16.256-26.666667 26.112l-42.837333-18.090666-31.061334 73.728 42.666667 18.005333c-1.706667 12.586667-1.792 25.173333-0.256 37.504l-42.922667 17.408 30.165334 74.112 42.922666-17.493333c7.552 9.813333 16.384 18.730667 26.325334 26.538666l-18.090667 42.837334 73.770667 31.104 18.133333-43.093334c6.357333 0.853333 12.586667 1.152 18.858667 1.152 6.144 0 12.245333-0.426667 18.218666-1.066666l17.706667 43.434666 74.069333-30.165333-17.834666-43.776a147.626667 147.626667 0 0 0 26.069333-25.898667l43.690667 18.389334 31.061333-73.728-43.562667-18.346667-0.256 0.597333z m-59.605333 18.005334a96.512 96.512 0 0 1-52.821333 52.138666 97.28 97.28 0 0 1-126.421334-53.333333 96.384 96.384 0 0 1 0.512-74.24 96.512 96.512 0 0 1 52.821334-52.138667 96.298667 96.298667 0 0 1 74.24 0.469334c23.850667 10.112 42.453333 28.842667 52.181333 52.864 9.770667 23.978667 9.6 50.346667-0.512 74.24z" p-id="3981"></path></svg>