<?xml version="1.0" standalone="no"?><!DOCTYPE svg PUBLIC "-//W3C//DTD SVG 1.1//EN" "http://www.w3.org/Graphics/SVG/1.1/DTD/svg11.dtd"><svg t="1606204617796" class="icon" viewBox="0 0 1024 1024" version="1.1" xmlns="http://www.w3.org/2000/svg" p-id="4178" xmlns:xlink="http://www.w3.org/1999/xlink" width="200" height="200"><defs><style type="text/css"></style></defs><path d="M778.837333 179.626667v214.186666h-79.189333V258.816H272.853333v544.341333h131.84v79.189334H193.621333V179.626667h585.173334z m-114.986666 321.706666a162.474667 162.474667 0 0 1 135.509333 252.245334l72.106667 72.106666-48.896 48.896-72.789334-72.789333a162.474667 162.474667 0 1 1-85.930666-300.458667z m0 79.146667a82.773333 82.773333 0 0 0-58.922667 24.448c-15.786667 15.744-24.448 36.693333-24.448 58.88 0 22.272 8.704 43.178667 24.448 58.922667 15.744 15.786667 36.693333 24.448 58.88 24.448a82.773333 82.773333 0 0 0 58.922667-24.448c15.786667-15.744 24.448-36.650667 24.448-58.88a82.773333 82.773333 0 0 0-24.448-58.922667 82.773333 82.773333 0 0 0-58.88-24.448z m-207.36-116.309333v80H361.429333v-80h95.061334z m159.018666-140.416v80H361.386667V323.754667h254.08z" p-id="4179"></path></svg>