<?xml version="1.0" standalone="no"?><!DOCTYPE svg PUBLIC "-//W3C//DTD SVG 1.1//EN" "http://www.w3.org/Graphics/SVG/1.1/DTD/svg11.dtd"><svg t="1606204497655" class="icon" viewBox="0 0 1024 1024" version="1.1" xmlns="http://www.w3.org/2000/svg" p-id="4052" xmlns:xlink="http://www.w3.org/1999/xlink" width="200" height="200"><defs><style type="text/css"></style></defs><path d="M459.392 746.837333A288 288 0 0 1 255.573333 662.613333a288 288 0 0 1-84.224-203.861333c0-76.117333 29.909333-149.461333 84.266667-203.818667a288 288 0 0 1 203.861333-84.224c76.117333 0 149.504 29.866667 203.861334 84.224a288 288 0 0 1 84.266666 203.861334 288 288 0 0 1-84.266666 203.861333 288 288 0 0 1-203.904 84.181333z m0-500.053333c-54.357333 0-108.714667 21.76-149.504 62.464A212.224 212.224 0 0 0 247.466667 458.752c0 54.357333 21.76 108.714667 62.464 149.504a212.224 212.224 0 0 0 149.504 62.464c54.357333 0 108.757333-21.76 149.504-62.464a212.224 212.224 0 0 0 62.506666-149.504c0-54.357333-21.76-108.757333-62.506666-149.504a212.224 212.224 0 0 0-149.504-62.506667z" p-id="4053"></path><path d="M812.714667 784.938667l-54.357334 54.357333-190.293333-190.250667 54.4-54.357333z" p-id="4054"></path></svg>