<?xml version="1.0" standalone="no"?><!DOCTYPE svg PUBLIC "-//W3C//DTD SVG 1.1//EN" "http://www.w3.org/Graphics/SVG/1.1/DTD/svg11.dtd"><svg t="1611295852628" class="icon" viewBox="0 0 1024 1024" version="1.1" xmlns="http://www.w3.org/2000/svg" p-id="2535" xmlns:xlink="http://www.w3.org/1999/xlink" width="200" height="200"><defs><style type="text/css"></style></defs><path d="M512 64c247.424 0 448 200.576 448 448S759.424 960 512 960 64 759.424 64 512 264.576 64 512 64z m0 68c-209.868 0-380 170.132-380 380s170.132 380 380 380 380-170.132 380-380-170.132-380-380-380z m0 552c23.196 0 42 18.804 42 42s-18.804 42-42 42-42-18.804-42-42 18.804-42 42-42zM385.975 299.298c64.126-64.242 169.383-65.912 235.618-3.748a165.311 165.311 0 0 1 3.655 3.538l1.184 1.194 1.69 1.722c55.83 56.879 54.253 147.068-3.401 202.042l-1.175 1.1-0.883 0.875c-0.418 0.411-0.839 0.821-1.266 1.235l-1.264 1.216c-7.968 7.607-16.295 14.597-26.569 22.36l-1.892 1.421-0.854 0.633-20.012 14.621-2.592 1.938-0.57 0.435-1.113 0.855-0.543 0.421-1.06 0.83-0.515 0.409-1.007 0.806c-0.165 0.133-0.329 0.265-0.49 0.397l-0.957 0.784-0.924 0.77-0.891 0.758-0.861 0.746-0.83 0.734-0.801 0.723-0.772 0.713-0.744 0.705c-0.244 0.233-0.483 0.465-0.717 0.696l-0.691 0.688-0.665 0.682c-0.218 0.227-0.431 0.452-0.64 0.676l-0.617 0.67c-0.706 0.78-1.364 1.551-1.98 2.319l-0.519 0.656a44.085 44.085 0 0 0-1.44 1.969l-0.445 0.657c-0.29 0.44-0.57 0.88-0.84 1.323-4.777 7.837-7.06 17.812-7.06 32.133 0 18.778-15.222 34-34 34-18.777 0-34-15.222-34-34 0-26.72 5.533-48.718 16.993-67.522 7.914-12.984 17.544-23.372 32.608-35.334l1.55-1.222 1.59-1.234c0.804-0.62 1.623-1.245 2.457-1.875l1.257-0.945 0.497-0.37 17.398-12.705 3.886-2.855 1.687-1.264a336.892 336.892 0 0 0 4.26-3.27l1.618-1.27a254.33 254.33 0 0 0 3.855-3.114l1.474-1.225a195.98 195.98 0 0 0 9.522-8.505c0.617-0.59 1.228-1.181 1.826-1.769l1.402-1.389 0.452-0.416c30.752-28.383 32.318-74.971 3.63-105.156l-0.89-0.922-1.69-1.722a97.164 97.164 0 0 0-2.847-2.783c-39.008-36.611-101.48-36.09-139.791 1.058l-1.164 1.147-21.039 21.076c-13.265 13.29-34.793 13.31-48.083 0.044-13.141-13.118-13.323-34.348-0.426-47.694l0.383-0.39z" p-id="2536"></path></svg>