<?xml version="1.0" standalone="no"?><!DOCTYPE svg PUBLIC "-//W3C//DTD SVG 1.1//EN" "http://www.w3.org/Graphics/SVG/1.1/DTD/svg11.dtd"><svg t="1606205206531" class="icon" viewBox="0 0 1024 1024" version="1.1" xmlns="http://www.w3.org/2000/svg" p-id="5179" xmlns:xlink="http://www.w3.org/1999/xlink" width="200" height="200"><defs><style type="text/css"></style></defs><path d="M853.333333 561.408v-100.352a17.578667 17.578667 0 0 0-18.304-18.218667H778.666667c-7.637333 0-15.232-4.565333-16.768-12.16-4.565333-13.696-9.130667-27.392-15.232-39.552-3.029333-6.101333-1.536-15.189333 3.029333-21.290666l39.637333-39.509334c6.101333-6.101333 6.101333-18.261333 0-25.856l-70.101333-69.973333c-6.101333-6.058667-18.261333-6.058667-25.898667 0l-39.637333 39.552c-6.058667 6.101333-13.696 6.101333-21.333333 3.029333-12.16-6.058667-25.898667-12.16-39.594667-15.189333-7.637333-1.536-12.202667-9.130667-12.202667-16.725333V188.928A18.517333 18.517333 0 0 0 562.346667 170.666667H461.653333a17.578667 17.578667 0 0 0-18.261333 18.261333v56.234667c0 7.594667-4.565333 15.189333-12.202667 16.725333a305.706667 305.706667 0 0 0-39.594666 15.189333c-6.101333 3.072-15.274667 1.536-21.333334-2.986666l-39.637333-39.552c-6.101333-6.101333-18.304-6.101333-25.898667 0L234.666667 305.92c-6.101333 6.101333-6.101333 18.261333 0 25.856l39.637333 39.552c6.058667 6.058667 6.058667 13.653333 3.029333 21.290667-6.101333 12.16-12.202667 25.813333-15.232 39.509333-1.536 7.594667-9.130667 12.16-16.768 12.16H188.970667a17.578667 17.578667 0 0 0-18.304 18.261333v100.352c0 10.666667 7.637333 18.218667 18.304 18.218667H245.333333c7.637333 0 15.232 4.565333 16.768 12.16 4.565333 13.696 9.130667 27.392 15.232 39.552 3.029333 6.101333 1.536 15.189333-3.029333 21.290667l-39.637333 39.509333c-6.101333 6.101333-6.101333 18.261333 0 25.856l70.101333 69.973333c6.101333 6.058667 18.261333 6.058667 25.898667 0l39.637333-39.552c6.058667-6.101333 13.696-6.101333 21.333333-3.029333 12.16 6.058667 25.898667 12.16 39.594667 15.189333 7.637333 1.536 12.202667 9.130667 12.202667 16.725334v56.234666c0 10.666667 7.594667 18.261333 18.261333 18.261334h100.608c10.666667 0 18.261333-7.594667 18.261333-18.261334V780.373333c0-7.637333 4.565333-15.232 12.202667-16.725333 13.696-4.565333 27.434667-9.130667 39.594667-15.232 6.101333-3.029333 15.274667-1.493333 21.333333 3.029333l39.637333 39.552c6.101333 6.101333 18.304 6.101333 25.898667 0l70.101333-69.973333c6.101333-6.058667 6.101333-18.218667 0-25.813333l-39.637333-39.552c-6.058667-6.058667-6.058667-13.653333-3.029333-21.248 6.101333-12.16 12.202667-25.856 15.232-39.552 1.536-7.594667 9.130667-12.16 16.768-12.16h56.362666c10.666667-3.029333 18.304-10.666667 18.304-21.290667z m-341.333333 141.397333c-105.130667 0-192-85.12-192-191.573333 0-104.917333 85.333333-191.573333 192-191.573333s192 86.656 192 191.573333-86.869333 191.573333-192 191.573333z" p-id="5180"></path></svg>