<svg width="38" height="37" xmlns="http://www.w3.org/2000/svg"><g fill="none" fill-rule="evenodd"><path d="M26.099 14.778c-1.614 1.232-3.698 1.975-5.976 1.975-5.114 0-9.264-3.751-9.264-8.377C10.859 3.751 15.005 0 20.123 0c2.278 0 4.362.742 5.976 1.975a8.338 8.338 0 00-1.834-.203c-4.107 0-7.438 2.958-7.438 6.604s3.331 6.604 7.438 6.604c.633 0 1.247-.07 1.834-.202zm3.486-5.644c-2.544-1.31-5.517-2.06-8.686-2.06-.448 0-.891.016-1.332.043a14.533 14.533 0 014.637 2.017h5.38zm-1.568 3.887h6.559a16.387 16.387 0 00-3.39-2.954h-5.743a12.681 12.681 0 012.574 2.954zm9.022 4.004a14.233 14.233 0 00-1.633-2.954h-6.81c.456.929.784 1.92.966 2.954h7.477zm-7.462 3.731h8.369a13.253 13.253 0 00-.533-2.682h-7.716c.023.284.034.568.034.856a11.398 11.398 0 01-.154 1.826zm8.145 3.887c.181-.87.278-1.764.278-2.682 0-.085 0-.17-.004-.26h-8.624a11.274 11.274 0 01-1.239 2.942h9.59zm-.664 2.204c.162-.412.309-.832.432-1.255h-9.982c-.32.439-.676.859-1.058 1.255h10.608zm-1.115 2.204c.254-.408.486-.828.698-1.255H25.447c-.545.458-1.131.878-1.753 1.255h12.249zm-1.336 1.812c.243-.284.475-.572.69-.867H21.834c-.891.373-1.833.668-2.814.867h15.588zm-21.803 0c-3.547-.723-6.57-2.655-8.492-5.279.556 1.936 1.548 3.724 2.883 5.279h5.61zm19.649 2.075c.444-.357.868-.73 1.27-1.127H8.076c.401.396.826.77 1.27 1.127h23.107zm-2.845 1.839a17.089 17.089 0 001.536-.894h-20.49c.494.322 1.008.618 1.537.894h17.417zm-15.244.944a19.256 19.256 0 006.535 1.127c2.316 0 4.524-.4 6.536-1.127H14.364zM2.837 23.827v-.186c-.393.023-.575-.136-.548-.486v-.879l.873-1.349c.204-.299.432-.45.69-.45v-.226h-1.4v.226c.254 0 .416.03.486.093.065.074.046.186-.062.338l-.707 1.123-.73-1.142c-.107-.152-.134-.257-.08-.32.042-.061.162-.092.367-.092v-.226H0v.226c.205.023.394.155.567.392l.973 1.594v.692c.027.35-.15.513-.529.486v.186h1.826zm3.409-3.518a2.617 2.617 0 00-.792-.132c-.81.024-1.23.373-1.258 1.05 0 .486.29.832.872 1.03.691.249 1.035.544 1.035.878-.027.362-.259.556-.691.58-.46.011-.776-.343-.953-1.066l-.244.04.081 1.161.344-.073c.27.085.529.132.772.132.907-.012 1.367-.37 1.378-1.065.012-.474-.343-.848-1.073-1.124-.556-.198-.826-.45-.81-.75.01-.361.196-.548.547-.56.417 0 .73.339.935 1.011l.243-.093-.081-1.104-.305.085zm3.119 0a2.617 2.617 0 00-.791-.132c-.811.024-1.232.373-1.259 1.05 0 .486.29.832.873 1.03.69.249 1.034.544 1.034.878-.027.362-.259.556-.69.58-.46.011-.777-.343-.954-1.066l-.244.04.081 1.161.344-.073c.27.085.529.132.772.132.907-.012 1.367-.37 1.378-1.065.012-.474-.343-.848-1.073-1.124-.556-.198-.826-.45-.81-.75.011-.361.196-.548.548-.56.416 0 .73.339.934 1.011l.243-.093-.081-1.104-.305.085zm3.663 3.518v-.186c-.394.023-.575-.136-.548-.486v-2.678h.243c.379-.04.668.33.873 1.103l.243-.054-.081-1.271h-3.285l-.081 1.29.243.055c.174-.774.467-1.147.872-1.123h.224v2.658c.027.362-.15.529-.529.506v.186h1.826zm1.32-.186v.186h2.942l.1-1.143-.243-.073c-.162.722-.475 1.065-.934 1.03h-.649v-1.516h.467c.336 0 .53.175.568.524h.224v-1.275h-.224c-.015.362-.205.53-.568.506h-.467v-1.403h.649c.448-.012.745.287.892.897l.243-.054-.124-1.065h-2.88v.225c.336-.023.495.152.468.525v2.134c.019.358-.14.525-.464.502zm6.64-3.277a2.727 2.727 0 00-.934-.187c-1.205.04-1.818.669-1.845 1.89.011 1.208.629 1.822 1.845 1.834.745-.012 1.25-.338 1.52-.972l-.262-.112c-.258.548-.664.824-1.216.824-.702-.024-1.061-.568-1.073-1.63.027-1.021.386-1.558 1.073-1.608.53-.04.892.361 1.097 1.197l.262-.074-.1-1.236-.367.074zm5.107 3.463v-.186c-.34.023-.502-.144-.486-.506v-2.134c-.027-.373.127-.548.467-.524v-.226h-1.664v.226c.313-.024.46.151.448.524v.824H23.3v-.824c-.027-.373.124-.548.448-.524v-.226h-1.664v.226c.336-.04.494.136.467.524v2.154c.012.338-.15.497-.486.486v.186h1.702v-.186c-.34.023-.494-.136-.467-.486V22.09h1.56v1.05c.027.36-.128.528-.467.504v.187h1.702v-.004z" fill="#528BFF"/></g></svg>