<?xml version="1.0" standalone="no"?><!DOCTYPE svg PUBLIC "-//W3C//DTD SVG 1.1//EN" "http://www.w3.org/Graphics/SVG/1.1/DTD/svg11.dtd"><svg t="1610506650759" class="icon" viewBox="0 0 1024 1024" version="1.1" xmlns="http://www.w3.org/2000/svg" p-id="2545" xmlns:xlink="http://www.w3.org/1999/xlink" width="200" height="200"><defs><style type="text/css"></style></defs><path d="M833.6384 256H443.5968c-11.264 0-20.48 9.216-20.48 20.48s9.216 20.48 20.48 20.48h390.0416c11.264 0 20.48-9.216 20.48-20.48s-9.1136-20.48-20.48-20.48zM443.5968 433.0496h249.5488c11.264 0 20.48-9.216 20.48-20.48s-9.216-20.48-20.48-20.48H443.5968c-11.264 0-20.48 9.216-20.48 20.48 0 11.3664 9.1136 20.48 20.48 20.48zM357.1712 240.64H190.3616c-11.264 0-20.48 9.216-20.48 20.48v166.8096c0 11.264 9.216 20.48 20.48 20.48h166.8096c11.264 0 20.48-9.216 20.48-20.48V261.12c0-11.264-9.216-20.48-20.48-20.48zM833.6384 590.9504H443.5968c-11.264 0-20.48 9.216-20.48 20.48s9.216 20.48 20.48 20.48h390.0416c11.264 0 20.48-9.216 20.48-20.48s-9.1136-20.48-20.48-20.48zM693.1456 727.04H443.5968c-11.264 0-20.48 9.216-20.48 20.48s9.216 20.48 20.48 20.48h249.5488c11.264 0 20.48-9.216 20.48-20.48 0-11.3664-9.216-20.48-20.48-20.48zM357.1712 575.5904H190.3616c-11.264 0-20.48 9.216-20.48 20.48V762.88c0 11.264 9.216 20.48 20.48 20.48h166.8096c11.264 0 20.48-9.216 20.48-20.48V596.0704c0-11.264-9.216-20.48-20.48-20.48z" p-id="2546"></path></svg>