<?xml version="1.0" standalone="no"?><!DOCTYPE svg PUBLIC "-//W3C//DTD SVG 1.1//EN" "http://www.w3.org/Graphics/SVG/1.1/DTD/svg11.dtd"><svg t="1608259546812" class="icon" viewBox="0 0 1024 1024" version="1.1" xmlns="http://www.w3.org/2000/svg" p-id="3725" xmlns:xlink="http://www.w3.org/1999/xlink" width="200" height="200"><defs><style type="text/css"></style></defs><path d="M361.386667 323.754667h254.122666v80H361.386667V323.754667z m0 140.373333h95.146666v80.042667H361.386667v-80z m316.586666-9.642667a236.330667 236.330667 0 1 0 0 472.661334 236.373333 236.373333 0 0 0 0-472.661334z m120.021334 356.437334a168.490667 168.490667 0 0 1-119.978667 49.664 168.832 168.832 0 0 1-120.021333-49.664 168.490667 168.490667 0 0 1-49.664-120.021334c0-45.312 17.664-87.893333 49.664-119.978666a168.490667 168.490667 0 0 1 120.021333-49.664c45.312 0 87.893333 17.664 119.978667 49.664a168.490667 168.490667 0 0 1 49.664 119.978666c0 45.354667-17.578667 87.893333-49.664 120.021334zM272.853333 258.816h426.794667V393.813333h79.189333V179.626667H193.664v702.72h210.986667v-79.189334h-131.84V258.816z m433.408 308.693333H639.573333v164.138667h137.941334v-66.645333h-71.253334V567.466667z" p-id="3726"></path></svg>
