<?xml version="1.0" standalone="no"?><!DOCTYPE svg PUBLIC "-//W3C//DTD SVG 1.1//EN" "http://www.w3.org/Graphics/SVG/1.1/DTD/svg11.dtd"><svg t="1609836052080" class="icon" viewBox="0 0 1024 1024" version="1.1" xmlns="http://www.w3.org/2000/svg" p-id="3946" xmlns:xlink="http://www.w3.org/1999/xlink" width="200" height="200"><defs><style type="text/css"></style></defs><path d="M510.6 96.9c-32.2 0-63.4 6.3-92.9 18.8-28.4 12-53.9 29.2-75.8 51.1-21.9 21.9-39.1 47.4-51.1 75.8-12.5 29.5-18.8 60.7-18.8 92.9s6.3 63.4 18.8 92.9c12 28.4 29.2 53.9 51.1 75.8 2.3 2.3 4.6 4.5 7 6.7-49.1 20.8-93.1 50.6-130.9 88.4-38 38-67.8 82.2-88.7 131.5-21.6 51.1-32.5 105.3-32.5 161.1h96c0-84.9 33.1-164.7 93.1-224.8 60-60 139.9-93.1 224.8-93.1h1.4c31.7-0.2 62.4-6.5 91.5-18.8 28.4-12 53.9-29.2 75.8-51.1 21.9-21.9 39.1-47.4 51.1-75.8 12.5-29.5 18.8-60.7 18.8-92.9s-6.3-63.4-18.8-92.9c-12-28.4-29.2-53.9-51.1-75.8-21.9-21.9-47.4-39.1-75.8-51.1-29.6-12.4-60.8-18.7-93-18.7z m0 381c-78.7 0-142.5-63.8-142.5-142.5s63.8-142.5 142.5-142.5 142.5 63.8 142.5 142.5-63.8 142.5-142.5 142.5z m198 47.6l-88.9 36.2 21.1 51.9c-11.8 9-22.6 19.5-32 31.3l-51.4-21.7-37.3 88.5 51.2 21.6c-2 15.1-2.1 30.2-0.3 45l-51.5 20.9 36.2 88.9 51.5-21c9.1 11.8 19.7 22.5 31.6 31.9l-21.7 51.4 88.5 37.3 21.8-51.7c7.6 1 15.1 1.4 22.6 1.4 7.4 0 14.7-0.5 21.9-1.3l21.2 52.1L882 952l-21.4-52.5c11.5-8.9 22.1-19.3 31.3-31.1l52.4 22.1 37.3-88.5-52.3-22-0.3 0.7c2-15.2 2.1-30.5 0.2-45.4l0.3 0.8 52.7-21.4-36.2-88.9-52.7 21.4 0.2 0.5c-9-11.8-19.4-22.5-31.2-31.9l0.1 0.1 22.1-52.4-88.3-37.5-22 52.2c-8-1.1-16-1.6-23.9-1.6-6.8 0-13.6 0.4-20.4 1.2l-21.3-52.3z m41.6 348c-15.3 0-30.7-3.1-45.2-9.2-28.7-12.1-50.9-34.6-62.6-63.4-11.7-28.8-11.5-60.4 0.6-89.1 12.1-28.6 34.6-50.9 63.4-62.6 14.2-5.8 29-8.6 43.9-8.6 15.3 0 30.7 3.1 45.2 9.2 28.6 12.1 50.9 34.6 62.6 63.4 11.7 28.8 11.5 60.4-0.6 89.1-12.1 28.6-34.6 50.9-63.4 62.6-14.2 5.7-29.1 8.6-43.9 8.6z" fill="" p-id="3947"></path></svg>