<?xml version="1.0" standalone="no"?><!DOCTYPE svg PUBLIC "-//W3C//DTD SVG 1.1//EN" "http://www.w3.org/Graphics/SVG/1.1/DTD/svg11.dtd"><svg t="1606204390161" class="icon" viewBox="0 0 1024 1024" version="1.1" xmlns="http://www.w3.org/2000/svg" p-id="3926" xmlns:xlink="http://www.w3.org/1999/xlink" width="200" height="200"><defs><style type="text/css"></style></defs><path d="M749.141333 642.688V546.133333L546.133333 708.778667l203.008 162.688v-95.701334c81.237333 0 156.586667 4.650667 220.245334 133.12 0-81.578667-11.946667-263.893333-220.245334-266.197333z" p-id="3927"></path><path d="M357.12 662.186667h96.128v83.413333H357.12V662.186667z m0-146.304h172.202667v83.370666H357.12v-83.370666z m74.666667 298.24H274.346667V248.576h199.04v192.384h226.944v51.754667h83.285333V357.546667h-0.256l-193.28-193.237334-1.194667 1.237334v-0.341334H190.976v732.245334h240.810667V814.08z m125.013333-565.248l108.629333 108.714666h-108.672V248.874667z" p-id="3928"></path></svg>