<?xml version="1.0" standalone="no"?><!DOCTYPE svg PUBLIC "-//W3C//DTD SVG 1.1//EN" "http://www.w3.org/Graphics/SVG/1.1/DTD/svg11.dtd"><svg t="1606462315124" class="icon" viewBox="0 0 1024 1024" version="1.1" xmlns="http://www.w3.org/2000/svg" p-id="3863" xmlns:xlink="http://www.w3.org/1999/xlink" width="200" height="200"><defs><style type="text/css"></style></defs><path d="M532.352 160.341333a373.76 373.76 0 0 0-373.76 372.906667H98.645333l103.936 121.898667 103.338667-121.898667H239.957333A290.901333 290.901333 0 0 1 325.632 327.253333a290.432 290.432 0 0 1 206.848-85.674666 290.773333 290.773333 0 0 1 206.848 85.674666 290.432 290.432 0 0 1 85.674667 206.848 290.773333 290.773333 0 0 1-85.674667 206.890667 290.432 290.432 0 0 1-206.848 85.674667 290.773333 290.773333 0 0 1-206.890667-85.674667l-0.853333-0.896-57.941333 57.173333a372.48 372.48 0 0 0 265.642666 110.72 373.845333 373.845333 0 1 0-0.085333-747.648z" p-id="3864"></path><path d="M618.154667 384L533.333333 471.338667l-84.778666-79.36L384 455.253333l84.906667 79.488-75.818667 76.586667 64.426667 66.389333 75.776-76.586666L609.194667 682.666667l64.426666-63.402667-75.818666-81.493333L682.666667 450.261333z" p-id="3865"></path></svg>
