<?xml version="1.0" encoding="UTF-8"?>
<svg width="166px" height="57px" viewBox="0 0 166 57" version="1.1" xmlns="http://www.w3.org/2000/svg" xmlns:xlink="http://www.w3.org/1999/xlink">
    <title>编组 6</title>
    <g id="登陆（已交付）" stroke="none" stroke-width="1" fill="none" fill-rule="evenodd">
        <g id="登陆" transform="translate(-635.000000, -326.000000)" fill-rule="nonzero">
            <g id="编组-6" transform="translate(635.000000, 326.000000)">
                <path d="M12.478,24.752 L12.478,14.892 L22.168,0.476 L18.802,0.476 L11.084,12.308 L3.366,0.476 L2.84217094e-14,0.476 L9.69,14.892 L9.69,24.752 L12.478,24.752 Z M35.02,25.228 C37.91,25.228 40.188,24.616 41.888,23.426 C43.588,22.202 44.438,20.502 44.438,18.394 C44.438,16.184 43.418,14.484 41.412,13.26 C40.392,12.648 38.284,11.866 35.088,10.914 C32.742,10.234 31.246,9.724 30.634,9.384 C29.24,8.636 28.56,7.65 28.56,6.426 C28.56,5.032 29.138,4.012 30.294,3.332 C31.314,2.72 32.708,2.448 34.51,2.448 C36.482,2.448 38.012,2.856 39.1,3.74 C40.154,4.59 40.834,5.882 41.14,7.65 L43.894,7.65 C43.656,5.1 42.738,3.162 41.106,1.87 C39.542,0.612 37.366,2.84217094e-14 34.646,2.84217094e-14 C32.13,2.84217094e-14 30.056,0.544 28.458,1.632 C26.656,2.788 25.772,4.454 25.772,6.562 C25.772,8.602 26.69,10.166 28.56,11.254 C29.342,11.662 31.212,12.342 34.136,13.226 C36.856,14.008 38.59,14.586 39.27,14.994 C40.868,15.844 41.684,17.034 41.684,18.564 C41.684,19.856 41.072,20.876 39.848,21.624 C38.624,22.372 36.992,22.746 35.02,22.746 C32.844,22.746 31.212,22.27 30.09,21.386 C28.866,20.4 28.118,18.836 27.88,16.728 L25.126,16.728 C25.33,19.72 26.384,21.93 28.288,23.392 C29.92,24.616 32.164,25.228 35.02,25.228 Z M58.208,25.228 C61.098,25.228 63.376,24.616 65.076,23.426 C66.776,22.202 67.626,20.502 67.626,18.394 C67.626,16.184 66.606,14.484 64.6,13.26 C63.58,12.648 61.472,11.866 58.276,10.914 C55.93,10.234 54.434,9.724 53.822,9.384 C52.428,8.636 51.748,7.65 51.748,6.426 C51.748,5.032 52.326,4.012 53.482,3.332 C54.502,2.72 55.896,2.448 57.698,2.448 C59.67,2.448 61.2,2.856 62.288,3.74 C63.342,4.59 64.022,5.882 64.328,7.65 L67.082,7.65 C66.844,5.1 65.926,3.162 64.294,1.87 C62.73,0.612 60.554,2.84217094e-14 57.834,2.84217094e-14 C55.318,2.84217094e-14 53.244,0.544 51.646,1.632 C49.844,2.788 48.96,4.454 48.96,6.562 C48.96,8.602 49.878,10.166 51.748,11.254 C52.53,11.662 54.4,12.342 57.324,13.226 C60.044,14.008 61.778,14.586 62.458,14.994 C64.056,15.844 64.872,17.034 64.872,18.564 C64.872,19.856 64.26,20.876 63.036,21.624 C61.812,22.372 60.18,22.746 58.208,22.746 C56.032,22.746 54.4,22.27 53.278,21.386 C52.054,20.4 51.306,18.836 51.068,16.728 L48.314,16.728 C48.518,19.72 49.572,21.93 51.476,23.392 C53.108,24.616 55.352,25.228 58.208,25.228 Z M82.314,24.752 L82.314,2.89 L90.882,2.89 L90.882,0.476 L70.992,0.476 L70.992,2.89 L79.56,2.89 L79.56,24.752 L82.314,24.752 Z M113.39,24.752 L113.39,22.338 L98.396,22.338 L98.396,13.43 L111.996,13.43 L111.996,11.016 L98.396,11.016 L98.396,2.89 L112.812,2.89 L112.812,0.476 L95.608,0.476 L95.608,24.752 L113.39,24.752 Z M129.336,25.228 C131.92,25.228 134.164,24.48 136.034,23.018 C138.04,21.454 139.298,19.244 139.842,16.422 L137.156,16.422 C136.68,18.53 135.694,20.128 134.266,21.216 C132.906,22.236 131.274,22.746 129.336,22.746 C126.48,22.746 124.338,21.794 122.842,19.924 C121.414,18.156 120.734,15.742 120.734,12.716 C120.734,9.69 121.448,7.276 122.876,5.44 C124.406,3.468 126.582,2.482 129.404,2.482 C131.308,2.482 132.906,2.924 134.232,3.842 C135.592,4.794 136.476,6.154 136.816,7.922 L139.502,7.922 C139.162,5.508 138.074,3.57 136.238,2.142 C134.402,0.714 132.124,2.84217094e-14 129.438,2.84217094e-14 C125.698,2.84217094e-14 122.774,1.258 120.734,3.842 C118.864,6.154 117.946,9.112 117.946,12.716 C117.946,16.32 118.83,19.244 120.666,21.488 C122.672,23.97 125.562,25.228 129.336,25.228 Z M148.206,24.752 L148.206,13.43 L162.248,13.43 L162.248,24.752 L165.036,24.752 L165.036,0.476 L162.248,0.476 L162.248,11.016 L148.206,11.016 L148.206,0.476 L145.418,0.476 L145.418,24.752 L148.206,24.752 Z" id="YSSTECH" fill="#000000"></path>
                <path d="M21.64,56.08 L21.64,54.7 L17.5,54.7 C18.1,53.62 18.66,52.36 19.16,50.96 L17.84,50.5 C17.32,52 16.72,53.4 16.04,54.7 L13.82,54.7 L13.82,49.36 L20.94,49.36 L20.94,48.02 L13.82,48.02 L13.82,45.14 L18.36,45.14 L18.36,44.04 C19.28,44.58 20.26,45.08 21.32,45.52 L22.14,44.32 C18.42,42.76 15.6,40.8 13.68,38.42 L12.52,38.42 C10.32,40.84 7.48,42.82 4,44.38 L4.84,45.58 C5.88,45.1 6.88,44.56 7.84,43.98 L7.84,45.14 L12.38,45.14 L12.38,48.02 L5.24,48.02 L5.24,49.36 L12.38,49.36 L12.38,54.7 L10.08,54.7 C9.56,53.12 9,51.76 8.38,50.64 L7.08,51.12 C7.72,52.24 8.26,53.42 8.68,54.7 L4.54,54.7 L4.54,56.08 L21.64,56.08 Z M18.02,43.84 L8.06,43.84 C9.92,42.7 11.6,41.34 13.1,39.78 C14.42,41.32 16.06,42.68 18.02,43.84 Z M40.98,56.42 L42.22,56.12 C41.78,54.2 41.28,52.52 40.72,51.04 L39.6,51.4 C39.88,52.18 40.12,52.98 40.36,53.82 C39.74,53.96 39.1,54.1 38.44,54.24 L38.44,49.78 L41.34,49.78 L41.34,41.78 L38.44,41.78 L38.44,38.34 L37.1,38.34 L37.1,41.78 L34.26,41.78 L34.26,49.78 L37.1,49.78 L37.1,54.48 C36.1,54.64 35.06,54.8 33.98,54.92 L34.32,56.26 C36.56,55.94 38.68,55.52 40.68,55.02 C40.78,55.46 40.88,55.94 40.98,56.42 Z M33.7,40.36 L33.7,39.06 L24.2,39.06 L24.2,40.36 L33.7,40.36 Z M32.52,45.94 L32.52,41.64 L25.34,41.64 L25.34,45.94 L32.52,45.94 Z M31.24,44.8 L26.62,44.8 L26.62,42.76 L31.24,42.76 L31.24,44.8 Z M40.1,48.5 L38.38,48.5 L38.38,43.06 L40.1,43.06 L40.1,48.5 Z M37.18,48.5 L35.5,48.5 L35.5,43.06 L37.18,43.06 L37.18,48.5 Z M25.8,56.6 L25.8,48.34 L32.06,48.34 L32.06,54.76 C32.06,55.08 31.86,55.24 31.48,55.24 L30.08,55.18 L30.44,56.46 L31.92,56.46 C32.84,56.46 33.32,55.98 33.32,55.04 L33.32,47.14 L24.54,47.14 L24.54,56.6 L25.8,56.6 Z M29.46,56.36 L29.46,52.76 L31.38,52.76 L31.38,51.64 L30.16,51.64 C30.48,50.96 30.8,50.18 31.08,49.3 L30.08,48.96 C29.8,49.9 29.48,50.8 29.1,51.64 L26.48,51.64 L26.48,52.76 L28.3,52.76 L28.3,56.36 L29.46,56.36 Z M27.6,51.54 L28.52,51.3 C28.28,50.46 28,49.74 27.68,49.12 L26.74,49.42 C27.08,50.1 27.36,50.8 27.6,51.54 Z M61.26,46.7 L61.78,45.42 C58.7,44.84 56.64,43.78 55.6,42.24 C55.76,41.84 55.88,41.4 55.96,40.92 L59.36,40.92 C59.12,41.7 58.84,42.4 58.5,43.02 L59.88,43.44 C60.28,42.48 60.6,41.5 60.84,40.52 L60.84,39.66 L52.78,39.66 C52.98,39.26 53.14,38.82 53.3,38.38 L51.88,38.2 C51.4,39.62 50.52,40.82 49.2,41.78 L50.04,42.9 C50.8,42.3 51.46,41.64 52.02,40.92 L54.58,40.92 C54.34,42.04 53.84,42.92 53.12,43.58 C52.24,44.34 50.82,44.92 48.86,45.34 L49.4,46.62 C51.64,46.1 53.24,45.36 54.22,44.44 C54.52,44.12 54.78,43.78 55.02,43.42 C56.26,45.02 58.34,46.1 61.26,46.7 Z M48,41.24 L48.76,40.08 C47.76,39.52 46.64,39.06 45.44,38.68 L44.74,39.76 C45.84,40.12 46.92,40.6 48,41.24 Z M45.34,46.36 C46.82,45.44 48.06,44.46 49.06,43.42 L48.22,42.44 C47.18,43.44 45.9,44.38 44.38,45.24 L45.34,46.36 Z M48.06,53.26 L48.06,48.5 L58.04,48.5 L58.04,53.1 L59.48,53.1 L59.48,47.16 L46.62,47.16 L46.62,53.26 L48.06,53.26 Z M45.14,56.56 C48.74,56.28 51.06,55.58 52.1,54.5 C53.04,53.62 53.64,51.92 53.92,49.38 L52.48,49.26 C52.32,51.32 51.78,52.78 50.88,53.64 C49.86,54.56 47.76,55.1 44.58,55.28 L45.14,56.56 Z M60.7,56.7 L61.48,55.5 C59.34,54.54 56.98,53.72 54.38,53.04 L53.64,54.14 C56.06,54.76 58.42,55.62 60.7,56.7 Z M64.96,56.58 C66.34,54.7 67.06,52.2 67.14,49.08 L67.14,46.12 L81.5,46.12 L81.5,44.74 L76.62,44.74 C77.04,43.78 77.36,42.76 77.6,41.7 L81.08,41.7 L81.08,40.32 L74.06,40.32 C73.76,39.46 73.44,38.68 73.12,38 L71.62,38.26 C71.98,38.88 72.32,39.56 72.6,40.32 L65.28,40.32 L65.28,41.7 L68.94,41.7 L69.78,44.74 L65.68,44.74 L65.68,49.08 C65.64,51.86 65.02,54.04 63.86,55.6 L64.96,56.58 Z M75.24,44.74 L71.2,44.74 L70.36,41.7 L76.22,41.7 C76.02,42.76 75.68,43.78 75.24,44.74 Z M89.44,43.18 L90.76,42.68 C90.48,42.14 90.1,41.56 89.66,40.96 L93.02,40.96 L93.02,39.7 L87.66,39.7 C87.82,39.3 88,38.9 88.16,38.46 L86.78,38.16 C86.22,39.68 85.34,41.08 84.14,42.32 L85.4,43.12 C86,42.46 86.52,41.74 87,40.96 L88.14,40.96 C88.64,41.68 89.08,42.42 89.44,43.18 Z M86,47.36 L86,44.98 L100.16,44.98 L100.16,47.36 L101.56,47.36 L101.56,43.74 L93.96,43.74 C93.76,43.18 93.54,42.68 93.32,42.22 L94.4,42.88 C94.84,42.28 95.26,41.64 95.62,40.96 L96.88,40.96 C97.36,41.6 97.78,42.28 98.14,43 L99.42,42.52 C99.18,42.04 98.84,41.52 98.42,40.96 L101.98,40.96 L101.98,39.7 L96.2,39.7 C96.36,39.3 96.5,38.9 96.64,38.48 L95.26,38.18 C94.82,39.62 94.14,40.92 93.18,42.12 L93.3,42.2 L91.9,42.44 C92.12,42.84 92.32,43.26 92.52,43.74 L84.6,43.74 L84.6,47.36 L86,47.36 Z M99.72,56.6 L99.72,51.46 L88.82,51.46 L88.82,50.08 L98.8,50.08 L98.8,46.16 L87.38,46.16 L87.38,56.58 L88.82,56.58 L88.82,55.76 L98.3,55.76 L98.3,56.6 L99.72,56.6 Z M97.4,48.92 L88.82,48.92 L88.82,47.32 L97.4,47.32 L97.4,48.92 Z M98.3,54.48 L88.82,54.48 L88.82,52.62 L98.3,52.62 L98.3,54.48 Z M122.26,56 L122.26,54.62 L117.02,54.62 L117.02,52.02 L121.52,52.02 L121.52,50.66 L117.02,50.66 L117.02,48.3 L121.18,48.3 L121.18,39.06 L111.4,39.06 L111.4,48.3 L115.58,48.3 L115.58,50.66 L111.06,50.66 L111.06,52.02 L115.58,52.02 L115.58,54.62 L110.22,54.62 L110.22,56 L122.26,56 Z M104.26,54.06 C106.38,53.54 108.36,52.9 110.2,52.14 L110.2,50.74 C109.48,51.06 108.76,51.34 108,51.6 L108,47.06 L110.2,47.06 L110.2,45.68 L108,45.68 L108,40.94 L110.44,40.94 L110.44,39.58 L104.06,39.58 L104.06,40.94 L106.52,40.94 L106.52,45.68 L104.34,45.68 L104.34,47.06 L106.52,47.06 L106.52,52.08 C105.66,52.32 104.78,52.52 103.9,52.68 L104.26,54.06 Z M115.58,43.06 L112.78,43.06 L112.78,40.34 L115.58,40.34 L115.58,43.06 Z M119.8,43.06 L117.02,43.06 L117.02,40.34 L119.8,40.34 L119.8,43.06 Z M119.8,47.02 L117.02,47.02 L117.02,44.32 L119.8,44.32 L119.8,47.02 Z M115.58,47.02 L112.78,47.02 L112.78,44.32 L115.58,44.32 L115.58,47.02 Z M133.74,56.58 L133.74,49.5 L141.94,49.5 L141.94,48.12 L133.74,48.12 L133.74,40.56 L141.18,40.56 L141.18,39.16 L125.02,39.16 L125.02,40.56 L132.26,40.56 L132.26,48.12 L124.22,48.12 L124.22,49.5 L132.26,49.5 L132.26,56.58 L133.74,56.58 Z M137.74,47 C138.72,45.48 139.52,43.94 140.12,42.36 L138.8,41.74 C138.22,43.26 137.44,44.78 136.46,46.34 L137.74,47 Z M128.28,47.08 L129.62,46.42 C128.94,44.76 128.22,43.24 127.46,41.84 L126.12,42.5 C126.88,43.84 127.6,45.36 128.28,47.08 Z M160.58,47.74 L161.98,47.06 C160.5,44.64 158.9,42.42 157.18,40.42 L155.88,41.04 C156.68,41.96 157.46,42.98 158.22,44.06 C154.78,44.38 151.14,44.64 147.3,44.8 C149.1,43.32 150.92,41.28 152.72,38.72 L151.24,38.22 C148.64,42.04 146.46,44.26 144.7,44.86 L144.98,46.22 C150.18,46.02 154.88,45.74 159.1,45.36 C159.58,46.12 160.08,46.9 160.58,47.74 Z M147.86,56.62 L147.86,55.62 L158.3,55.62 L158.3,56.62 L159.76,56.62 L159.76,48.28 L146.4,48.28 L146.4,56.62 L147.86,56.62 Z M158.3,54.24 L147.86,54.24 L147.86,49.66 L158.3,49.66 L158.3,54.24 Z" id="金融资产管理平台" fill="#464646"></path>
            </g>
        </g>
    </g>
</svg>