<?xml version="1.0" encoding="UTF-8"?>
<svg width="38px" height="37px" viewBox="0 0 38 37" version="1.1" xmlns="http://www.w3.org/2000/svg" xmlns:xlink="http://www.w3.org/1999/xlink">
    <!-- Generator: Sketch 63.1 (92452) - https://sketch.com -->
    <title>编组</title>
    <desc>Created with Sketch.</desc>
    <g id="控件" stroke="none" stroke-width="1" fill="none" fill-rule="evenodd">
        <g id="编组" transform="translate(-9.000000, -10.000000)">
            <g>
                <g id="编组-2">
                    <rect id="矩形" fill="#343D60" opacity="0" x="0" y="0" width="56" height="56"></rect>
                    <path d="M35.0989435,24.7782636 C33.4853718,26.0104334 31.4008533,26.7528449 29.1233239,26.7528449 C24.0085331,26.7528449 19.8587972,23.0019179 19.8587972,18.3764225 C19.8587972,13.750927 24.0046729,10 29.1233239,10 C31.4008533,10 33.4853718,10.7424115 35.0989435,11.9745813 C34.5121902,11.8424242 33.8984153,11.7724588 33.2653393,11.7724588 C29.1580658,11.7724588 25.8266965,14.7304437 25.8266965,18.3764225 C25.8266965,22.0224012 29.1580658,24.9803861 33.2653393,24.9803861 C33.8984153,24.9803861 34.5121902,24.9104207 35.0989435,24.7782636 Z M38.5847217,19.1343818 C36.0408371,17.8244726 33.0684681,17.0742872 29.899228,17.0742872 C29.4514425,17.0742872 29.0075173,17.0898351 28.5674523,17.1170439 C30.2659488,17.5290628 31.8331979,18.2209436 33.2035758,19.1343818 L38.5847217,19.1343818 Z M37.0174726,23.0213528 L43.5759854,23.0213528 C42.6109305,21.9057921 41.4683056,20.9107275 40.1867127,20.0672548 L34.4427062,20.0672548 C35.4618041,20.9262754 36.3303535,21.925227 37.0174726,23.0213528 Z M46.0388054,27.0249329 C45.6180414,25.9832247 45.0660301,24.9920471 44.4059325,24.0708349 L37.5965055,24.0708349 C38.0520114,24.999821 38.38013,25.9909986 38.5615603,27.0249329 L46.0388054,27.0249329 Z M38.5770012,30.756425 L46.9459569,30.756425 C46.8610321,29.8352129 46.6796018,28.9412096 46.4132466,28.074415 L38.696668,28.074415 C38.7198293,28.3581639 38.73141,28.6419128 38.73141,28.9295487 C38.7275498,29.551464 38.6773669,30.1617185 38.5770012,30.756425 Z M46.7220642,34.643396 C46.9034945,33.7727145 47,32.8787112 47,31.961386 C47,31.8758727 47,31.7903593 46.9961398,31.700959 L38.3724096,31.700959 C38.1021942,32.7387802 37.6814303,33.7260708 37.1332792,34.643396 L46.7220642,34.643396 Z M46.0581065,36.8473085 C46.2202357,36.4352896 46.366924,36.0154967 46.490451,35.5918169 L36.5079236,35.5918169 C36.1875254,36.0310446 35.8323852,36.4508375 35.4502235,36.8473085 L46.0581065,36.8473085 Z M44.942503,39.0512211 C45.1972775,38.6430891 45.4288907,38.2232963 45.6412028,37.7957294 L34.4465664,37.7957294 C33.9022755,38.254392 33.3155221,38.6741849 32.6940268,39.0512211 L44.942503,39.0512211 Z M43.6068671,40.8625495 C43.850061,40.5788007 44.0816741,40.2911648 44.2978464,39.995755 L30.8334011,39.995755 C29.9416904,40.3689042 28.9997968,40.664314 28.0193011,40.8625495 L43.6068671,40.8625495 Z M21.8043478,40.8625495 C18.2568062,40.1395729 15.2342544,38.2077484 13.3118651,35.584043 C13.8677367,37.5197545 14.8598131,39.3077612 16.195449,40.8625495 L21.8043478,40.8625495 L21.8043478,40.8625495 Z M41.4528647,42.938192 C41.8967899,42.5805907 42.3214141,42.2074415 42.7228769,41.8109705 L17.075579,41.8109705 C17.4770419,42.2074415 17.901666,42.5805907 18.3455912,42.938192 L41.4528647,42.938192 Z M38.607883,44.7767293 C39.1405933,44.5007544 39.6540024,44.2053446 40.1442503,43.882726 L19.6542056,43.882726 C20.1483137,44.2053446 20.6617229,44.5007544 21.1905729,44.7767293 L38.607883,44.7767293 Z M23.3638765,45.7212633 C25.378911,46.4481268 27.5869565,46.8484848 29.899228,46.8484848 C32.2153596,46.8484848 34.4234051,46.4481268 36.4345794,45.7212633 L23.3638765,45.7212633 Z M11.8372613,33.8271321 L11.8372613,33.6405575 C11.4435189,33.6638793 11.2620886,33.5045135 11.2891101,33.1546861 L11.2891101,32.2762307 L12.1615197,30.9274517 C12.3661113,30.628155 12.5938643,30.4765631 12.852499,30.4765631 L12.852499,30.2511188 L11.4512393,30.2511188 L11.4512393,30.4765631 C11.7060138,30.4765631 11.868143,30.5076589 11.937627,30.5698504 C12.0032507,30.6437029 11.9839496,30.756425 11.8758635,30.9080169 L11.1694433,32.0313515 L10.4398618,30.888582 C10.3317757,30.7369902 10.3047542,30.6320419 10.3587972,30.5698504 C10.4012597,30.5076589 10.5209265,30.4765631 10.7255181,30.4765631 L10.7255181,30.2511188 L9,30.2511188 L9,30.4765631 C9.20459163,30.4998849 9.39374238,30.6320419 9.56745226,30.8691472 L10.5402275,32.4628053 L10.5402275,33.1546861 C10.5672491,33.5045135 10.389679,33.6677663 10.0113775,33.6405575 L10.0113775,33.8271321 L11.8372613,33.8271321 L11.8372613,33.8271321 Z M15.245835,30.3094233 C14.9756197,30.22391 14.7131247,30.1772663 14.45449,30.1772663 C13.643844,30.2005882 13.22308,30.5504155 13.1960585,31.2267485 C13.1960585,31.7126199 13.485575,32.0585603 14.0684681,32.2567958 C14.7594474,32.5055619 15.1030069,32.8009717 15.1030069,33.1352512 C15.0759854,33.4967395 14.8443722,33.6910881 14.4120276,33.7144099 C13.9526615,33.7260708 13.6361235,33.3723565 13.4585534,32.6493799 L13.2153596,32.6882496 L13.2964242,33.8504539 L13.6399837,33.7766015 C13.9101991,33.8621148 14.1688338,33.9087585 14.4120276,33.9087585 C15.3191792,33.8970976 15.7785453,33.5394962 15.790126,32.8437284 C15.8017066,32.369518 15.4465664,31.9963688 14.716985,31.7203938 C14.1611134,31.5221583 13.890898,31.2695052 13.9063389,30.9702084 C13.9179195,30.6087201 14.1032101,30.4221455 14.45449,30.4104846 C14.8713937,30.4104846 15.1840715,30.7486511 15.3886631,31.421097 L15.631857,31.3278097 L15.5507924,30.22391 L15.245835,30.3094233 Z M18.3648923,30.3094233 C18.094677,30.22391 17.832182,30.1772663 17.5735473,30.1772663 C16.7629013,30.2005882 16.3421373,30.5504155 16.3151158,31.2267485 C16.3151158,31.7126199 16.6046323,32.0585603 17.1875254,32.2567958 C17.8785047,32.5055619 18.2220642,32.8009717 18.2220642,33.1352512 C18.1950427,33.4967395 17.9634295,33.6910881 17.5310849,33.7144099 C17.0717188,33.7260708 16.7551808,33.3723565 16.5776107,32.6493799 L16.3344169,32.6882496 L16.4154815,33.8504539 L16.759041,33.7766015 C17.0292564,33.8621148 17.2878911,33.9087585 17.5310849,33.9087585 C18.4382365,33.8970976 18.8976026,33.5394962 18.9091833,32.8437284 C18.9207639,32.369518 18.5656237,31.9963688 17.8360423,31.7203938 C17.2801707,31.5221583 17.0099553,31.2695052 17.0253962,30.9702084 C17.0369768,30.6087201 17.2222674,30.4221455 17.5735473,30.4104846 C17.990451,30.4104846 18.3031288,30.7486511 18.5077204,31.421097 L18.7509143,31.3278097 L18.6698497,30.22391 L18.3648923,30.3094233 Z M22.0282406,33.8271321 L22.0282406,33.6405575 C21.6344982,33.6638793 21.4530679,33.5045135 21.4800894,33.1546861 L21.4800894,30.4765631 L21.7232832,30.4765631 C22.1015847,30.4376934 22.3911012,30.8069556 22.5956928,31.5804629 L22.8388866,31.5260453 L22.757822,30.2550058 L19.4727753,30.2550058 L19.3917107,31.5454801 L19.6349045,31.5998977 C19.8086144,30.8263905 20.1019911,30.4532413 20.5073141,30.4765631 L20.7312068,30.4765631 L20.7312068,33.1352512 C20.7582284,33.4967395 20.5806583,33.6638793 20.2023568,33.6405575 L20.2023568,33.8271321 L22.0282406,33.8271321 Z M23.3484356,33.6405575 L23.3484356,33.8271321 L26.2899228,33.8271321 L26.3902885,32.6843626 L26.1470947,32.6105102 C25.9849655,33.3334868 25.6722877,33.6755402 25.2129216,33.6405575 L24.5644047,33.6405575 L24.5644047,32.1246388 L25.0314913,32.1246388 C25.3673304,32.1246388 25.5603413,32.2995525 25.5989435,32.6493799 L25.8228362,32.6493799 L25.8228362,31.3744534 L25.5989435,31.3744534 C25.5835026,31.7359417 25.3943519,31.9030814 25.0314913,31.8797596 L24.5644047,31.8797596 L24.5644047,30.4765631 L25.2129216,30.4765631 C25.660707,30.4649022 25.9579439,30.764199 26.1046323,31.3744534 L26.3478261,31.3200358 L26.2242991,30.2550058 L23.3445754,30.2550058 L23.3445754,30.4804501 C23.6804145,30.4571282 23.8386835,30.6320419 23.8116619,31.0051912 L23.8116619,33.1391382 C23.830963,33.4967395 23.672694,33.6638793 23.3484356,33.6405575 Z M29.988013,30.3638409 C29.6483137,30.2394579 29.3394961,30.1772663 29.0538399,30.1772663 C27.8494514,30.216136 27.2356766,30.8458253 27.208655,32.0663342 C27.2202357,33.2751822 27.8378708,33.8893236 29.0538399,33.9009845 C29.7988623,33.8893236 30.304551,33.5628181 30.5747664,32.9292418 L30.3122714,32.8165196 C30.0536367,33.3645825 29.6483137,33.6405575 29.0963023,33.6405575 C28.3937424,33.6172356 28.034742,33.0730597 28.0231613,32.0119166 C28.0501829,30.9896433 28.4091833,30.4532413 29.0963023,30.4027107 C29.6251524,30.3638409 29.988013,30.764199 30.1926046,31.5998977 L30.4550996,31.5260453 L30.3547338,30.2899885 L29.988013,30.3638409 Z M35.0950833,33.8271321 L35.0950833,33.6405575 C34.755384,33.6638793 34.5932548,33.4967395 34.6086957,33.1352512 L34.6086957,31.0013042 C34.5816741,30.628155 34.7360829,30.4532413 35.0757822,30.4765631 L35.0757822,30.2511188 L33.4120276,30.2511188 L33.4120276,30.4765631 C33.7247054,30.4532413 33.8713937,30.628155 33.8598131,31.0013042 L33.8598131,31.825342 L32.3002844,31.825342 L32.3002844,31.0013042 C32.2732629,30.628155 32.4238115,30.4532413 32.7480699,30.4765631 L32.7480699,30.2511188 L31.0843153,30.2511188 L31.0843153,30.4765631 C31.4201544,30.4376934 31.5784234,30.6126071 31.5514019,31.0013042 L31.5514019,33.1546861 C31.5629825,33.4928526 31.4008533,33.6522184 31.0650142,33.6405575 L31.0650142,33.8271321 L32.767371,33.8271321 L32.767371,33.6405575 C32.4276717,33.6638793 32.2732629,33.5045135 32.3002844,33.1546861 L32.3002844,32.0896561 L33.8598131,32.0896561 L33.8598131,33.1391382 C33.8868346,33.5006265 33.7324258,33.6677663 33.3927265,33.6444444 L33.3927265,33.8310191 L35.0950833,33.8310191 L35.0950833,33.8271321 Z" id="形状" fill="#528BFF"></path>
                </g>
                <g id="logo_ysstech" transform="translate(9.000000, 10.000000)"></g>
            </g>
        </g>
    </g>
</svg>