<?xml version="1.0" encoding="UTF-8"?>
<svg width="16px" height="22px" viewBox="0 0 16 22" version="1.1" xmlns="http://www.w3.org/2000/svg" xmlns:xlink="http://www.w3.org/1999/xlink">
    <title>图例2</title>
    <g id="指标信息管理（已交付）" stroke="none" stroke-width="1" fill="none" fill-rule="evenodd">
        <g id="图例2">
            <g id="check-circle" opacity="0">
                <rect id="矩形" fill="#000000" fill-rule="nonzero" x="0" y="0" width="16" height="22"></rect>
                <g id="lengendLine2" transform="translate(0.000000, 10.000000)"></g>
                <path d="M10.921875,7.58398438 L10.1890625,7.58398438 C10.0296875,7.58398438 9.878125,7.68925781 9.784375,7.86972656 L7.328125,12.5533203 L6.215625,10.4306641 C6.121875,10.2523437 5.971875,10.1449219 5.8109375,10.1449219 L5.078125,10.1449219 C4.9765625,10.1449219 4.9171875,10.3039062 4.9765625,10.4177734 L6.9234375,14.1302734 C7.121875,14.5105469 7.5328125,14.5105469 7.73125,14.1302734 L11.021875,7.85683594 C11.0828125,7.74296875 11.0234375,7.58398438 10.921875,7.58398438 Z" id="路径" fill="#000000" fill-rule="nonzero"></path>
                <path d="M8,1.375 C4.134375,1.375 1,5.68476563 1,11 C1,16.3152344 4.134375,20.625 8,20.625 C11.865625,20.625 15,16.3152344 15,11 C15,5.68476563 11.865625,1.375 8,1.375 Z M8,18.9921875 C4.790625,18.9921875 2.1875,15.4128906 2.1875,11 C2.1875,6.58710938 4.790625,3.0078125 8,3.0078125 C11.209375,3.0078125 13.8125,6.58710938 13.8125,11 C13.8125,15.4128906 11.209375,18.9921875 8,18.9921875 Z" id="形状" fill="#000000" fill-rule="nonzero"></path>
            </g>
            <rect id="矩形" fill="#F96865" fill-rule="nonzero" x="0" y="10" width="4" height="2"></rect>
            <rect id="矩形备份" fill="#F96865" fill-rule="nonzero" x="6" y="10" width="4" height="2"></rect>
            <rect id="矩形备份-4" fill="#F96865" fill-rule="nonzero" x="12" y="10" width="4" height="2"></rect>
        </g>
    </g>
</svg>