<?xml version="1.0" standalone="no"?><!DOCTYPE svg PUBLIC "-//W3C//DTD SVG 1.1//EN" "http://www.w3.org/Graphics/SVG/1.1/DTD/svg11.dtd"><svg t="1606204661464" class="icon" viewBox="0 0 1024 1024" version="1.1" xmlns="http://www.w3.org/2000/svg" p-id="4303" xmlns:xlink="http://www.w3.org/1999/xlink" width="200" height="200"><defs><style type="text/css"></style></defs><path d="M510.848 220.330667a290.261333 290.261333 0 0 1 206.250667 85.504 290.133333 290.133333 0 0 1 85.504 206.250666 290.261333 290.261333 0 0 1-85.504 206.250667 290.133333 290.133333 0 0 1-206.250667 85.504 290.261333 290.261333 0 0 1-206.250667-85.504 290.133333 290.133333 0 0 1-85.504-206.250667 290.261333 290.261333 0 0 1 85.504-206.250666 291.626667 291.626667 0 0 1 92.757334-62.592 289.834667 289.834667 0 0 1 113.493333-22.912m0-80a371.712 371.712 0 0 0-371.754667 371.754666c0 205.312 166.4 371.754667 371.754667 371.754667 205.312 0 371.754667-166.4 371.754667-371.754667 0-205.354667-166.4-371.754667-371.754667-371.754666z m186.837333 331.690666h-146.517333V325.461333h-80v146.517334H324.650667v79.957333h146.517333v146.517333h80v-146.474666h146.517333v-80.042667z" p-id="4304"></path></svg>